<mxfile host="Electron" modified="2023-08-12T18:25:37.074Z" agent="Mozilla/5.0 (Windows NT 10.0; Win64; x64) AppleWebKit/537.36 (KHTML, like Gecko) draw.io/21.6.8 Chrome/114.0.5735.289 Electron/25.5.0 Safari/537.36" etag="nkQcoOwRUQDFMLI1Pyn6" version="21.6.8" type="device">
  <diagram name="Page-1" id="lkXdocSlJOi6TLb3Y7wN">
    <mxGraphModel dx="2390" dy="1393" grid="1" gridSize="10" guides="1" tooltips="1" connect="1" arrows="1" fold="1" page="1" pageScale="1" pageWidth="1169" pageHeight="827" math="0" shadow="0">
      <root>
        <mxCell id="0" />
        <mxCell id="1" parent="0" />
        <mxCell id="vNeIINF5kTcQfUYiP6Qm-1" value="Produtor" style="shape=table;startSize=25;container=1;collapsible=0;childLayout=tableLayout;fixedRows=1;rowLines=1;fontStyle=1;align=center;resizeLast=1;fillColor=#dae8fc;strokeColor=#6c8ebf;fontColor=#000000;" parent="1" vertex="1">
          <mxGeometry x="40" y="63" width="174" height="663" as="geometry" />
        </mxCell>
        <mxCell id="vNeIINF5kTcQfUYiP6Qm-2" style="shape=tableRow;horizontal=0;startSize=0;swimlaneHead=0;swimlaneBody=0;fillColor=none;collapsible=0;dropTarget=0;points=[[0,0.5],[1,0.5]];portConstraint=eastwest;top=0;left=0;right=0;bottom=0;" parent="vNeIINF5kTcQfUYiP6Qm-1" vertex="1">
          <mxGeometry y="25" width="174" height="22" as="geometry" />
        </mxCell>
        <mxCell id="vNeIINF5kTcQfUYiP6Qm-3" value="string" style="shape=partialRectangle;connectable=0;fillColor=none;top=0;left=0;bottom=0;right=0;align=left;spacingLeft=2;overflow=hidden;fontSize=11;" parent="vNeIINF5kTcQfUYiP6Qm-2" vertex="1">
          <mxGeometry width="48" height="22" as="geometry">
            <mxRectangle width="48" height="22" as="alternateBounds" />
          </mxGeometry>
        </mxCell>
        <mxCell id="vNeIINF5kTcQfUYiP6Qm-4" value="id_pessoa" style="shape=partialRectangle;connectable=0;fillColor=none;top=0;left=0;bottom=0;right=0;align=left;spacingLeft=2;overflow=hidden;fontSize=11;" parent="vNeIINF5kTcQfUYiP6Qm-2" vertex="1">
          <mxGeometry x="48" width="126" height="22" as="geometry">
            <mxRectangle width="126" height="22" as="alternateBounds" />
          </mxGeometry>
        </mxCell>
        <mxCell id="vNeIINF5kTcQfUYiP6Qm-5" style="shape=tableRow;horizontal=0;startSize=0;swimlaneHead=0;swimlaneBody=0;fillColor=none;collapsible=0;dropTarget=0;points=[[0,0.5],[1,0.5]];portConstraint=eastwest;top=0;left=0;right=0;bottom=0;" parent="vNeIINF5kTcQfUYiP6Qm-1" vertex="1">
          <mxGeometry y="47" width="174" height="22" as="geometry" />
        </mxCell>
        <mxCell id="vNeIINF5kTcQfUYiP6Qm-6" value="bigint" style="shape=partialRectangle;connectable=0;fillColor=none;top=0;left=0;bottom=0;right=0;align=left;spacingLeft=2;overflow=hidden;fontSize=11;" parent="vNeIINF5kTcQfUYiP6Qm-5" vertex="1">
          <mxGeometry width="48" height="22" as="geometry">
            <mxRectangle width="48" height="22" as="alternateBounds" />
          </mxGeometry>
        </mxCell>
        <mxCell id="vNeIINF5kTcQfUYiP6Qm-7" value="id_pessoa_demeter" style="shape=partialRectangle;connectable=0;fillColor=none;top=0;left=0;bottom=0;right=0;align=left;spacingLeft=2;overflow=hidden;fontSize=11;" parent="vNeIINF5kTcQfUYiP6Qm-5" vertex="1">
          <mxGeometry x="48" width="126" height="22" as="geometry">
            <mxRectangle width="126" height="22" as="alternateBounds" />
          </mxGeometry>
        </mxCell>
        <mxCell id="vNeIINF5kTcQfUYiP6Qm-8" style="shape=tableRow;horizontal=0;startSize=0;swimlaneHead=0;swimlaneBody=0;fillColor=none;collapsible=0;dropTarget=0;points=[[0,0.5],[1,0.5]];portConstraint=eastwest;top=0;left=0;right=0;bottom=0;" parent="vNeIINF5kTcQfUYiP6Qm-1" vertex="1">
          <mxGeometry y="69" width="174" height="22" as="geometry" />
        </mxCell>
        <mxCell id="vNeIINF5kTcQfUYiP6Qm-9" value="string" style="shape=partialRectangle;connectable=0;fillColor=none;top=0;left=0;bottom=0;right=0;align=left;spacingLeft=2;overflow=hidden;fontSize=11;" parent="vNeIINF5kTcQfUYiP6Qm-8" vertex="1">
          <mxGeometry width="48" height="22" as="geometry">
            <mxRectangle width="48" height="22" as="alternateBounds" />
          </mxGeometry>
        </mxCell>
        <mxCell id="vNeIINF5kTcQfUYiP6Qm-10" value="nm_pessoa" style="shape=partialRectangle;connectable=0;fillColor=none;top=0;left=0;bottom=0;right=0;align=left;spacingLeft=2;overflow=hidden;fontSize=11;" parent="vNeIINF5kTcQfUYiP6Qm-8" vertex="1">
          <mxGeometry x="48" width="126" height="22" as="geometry">
            <mxRectangle width="126" height="22" as="alternateBounds" />
          </mxGeometry>
        </mxCell>
        <mxCell id="vNeIINF5kTcQfUYiP6Qm-11" style="shape=tableRow;horizontal=0;startSize=0;swimlaneHead=0;swimlaneBody=0;fillColor=none;collapsible=0;dropTarget=0;points=[[0,0.5],[1,0.5]];portConstraint=eastwest;top=0;left=0;right=0;bottom=0;" parent="vNeIINF5kTcQfUYiP6Qm-1" vertex="1">
          <mxGeometry y="91" width="174" height="22" as="geometry" />
        </mxCell>
        <mxCell id="vNeIINF5kTcQfUYiP6Qm-12" value="string" style="shape=partialRectangle;connectable=0;fillColor=none;top=0;left=0;bottom=0;right=0;align=left;spacingLeft=2;overflow=hidden;fontSize=11;" parent="vNeIINF5kTcQfUYiP6Qm-11" vertex="1">
          <mxGeometry width="48" height="22" as="geometry">
            <mxRectangle width="48" height="22" as="alternateBounds" />
          </mxGeometry>
        </mxCell>
        <mxCell id="vNeIINF5kTcQfUYiP6Qm-13" value="ds_apelido" style="shape=partialRectangle;connectable=0;fillColor=none;top=0;left=0;bottom=0;right=0;align=left;spacingLeft=2;overflow=hidden;fontSize=11;" parent="vNeIINF5kTcQfUYiP6Qm-11" vertex="1">
          <mxGeometry x="48" width="126" height="22" as="geometry">
            <mxRectangle width="126" height="22" as="alternateBounds" />
          </mxGeometry>
        </mxCell>
        <mxCell id="vNeIINF5kTcQfUYiP6Qm-14" style="shape=tableRow;horizontal=0;startSize=0;swimlaneHead=0;swimlaneBody=0;fillColor=none;collapsible=0;dropTarget=0;points=[[0,0.5],[1,0.5]];portConstraint=eastwest;top=0;left=0;right=0;bottom=0;" parent="vNeIINF5kTcQfUYiP6Qm-1" vertex="1">
          <mxGeometry y="113" width="174" height="22" as="geometry" />
        </mxCell>
        <mxCell id="vNeIINF5kTcQfUYiP6Qm-15" value="int" style="shape=partialRectangle;connectable=0;fillColor=none;top=0;left=0;bottom=0;right=0;align=left;spacingLeft=2;overflow=hidden;fontSize=11;" parent="vNeIINF5kTcQfUYiP6Qm-14" vertex="1">
          <mxGeometry width="48" height="22" as="geometry">
            <mxRectangle width="48" height="22" as="alternateBounds" />
          </mxGeometry>
        </mxCell>
        <mxCell id="vNeIINF5kTcQfUYiP6Qm-16" value="sn_pronaf" style="shape=partialRectangle;connectable=0;fillColor=none;top=0;left=0;bottom=0;right=0;align=left;spacingLeft=2;overflow=hidden;fontSize=11;" parent="vNeIINF5kTcQfUYiP6Qm-14" vertex="1">
          <mxGeometry x="48" width="126" height="22" as="geometry">
            <mxRectangle width="126" height="22" as="alternateBounds" />
          </mxGeometry>
        </mxCell>
        <mxCell id="vNeIINF5kTcQfUYiP6Qm-17" style="shape=tableRow;horizontal=0;startSize=0;swimlaneHead=0;swimlaneBody=0;fillColor=none;collapsible=0;dropTarget=0;points=[[0,0.5],[1,0.5]];portConstraint=eastwest;top=0;left=0;right=0;bottom=0;" parent="vNeIINF5kTcQfUYiP6Qm-1" vertex="1">
          <mxGeometry y="135" width="174" height="22" as="geometry" />
        </mxCell>
        <mxCell id="vNeIINF5kTcQfUYiP6Qm-18" value="int" style="shape=partialRectangle;connectable=0;fillColor=none;top=0;left=0;bottom=0;right=0;align=left;spacingLeft=2;overflow=hidden;fontSize=11;" parent="vNeIINF5kTcQfUYiP6Qm-17" vertex="1">
          <mxGeometry width="48" height="22" as="geometry">
            <mxRectangle width="48" height="22" as="alternateBounds" />
          </mxGeometry>
        </mxCell>
        <mxCell id="vNeIINF5kTcQfUYiP6Qm-19" value="sn_ativo" style="shape=partialRectangle;connectable=0;fillColor=none;top=0;left=0;bottom=0;right=0;align=left;spacingLeft=2;overflow=hidden;fontSize=11;" parent="vNeIINF5kTcQfUYiP6Qm-17" vertex="1">
          <mxGeometry x="48" width="126" height="22" as="geometry">
            <mxRectangle width="126" height="22" as="alternateBounds" />
          </mxGeometry>
        </mxCell>
        <mxCell id="vNeIINF5kTcQfUYiP6Qm-20" style="shape=tableRow;horizontal=0;startSize=0;swimlaneHead=0;swimlaneBody=0;fillColor=none;collapsible=0;dropTarget=0;points=[[0,0.5],[1,0.5]];portConstraint=eastwest;top=0;left=0;right=0;bottom=0;" parent="vNeIINF5kTcQfUYiP6Qm-1" vertex="1">
          <mxGeometry y="157" width="174" height="22" as="geometry" />
        </mxCell>
        <mxCell id="vNeIINF5kTcQfUYiP6Qm-21" value="string" style="shape=partialRectangle;connectable=0;fillColor=none;top=0;left=0;bottom=0;right=0;align=left;spacingLeft=2;overflow=hidden;fontSize=11;" parent="vNeIINF5kTcQfUYiP6Qm-20" vertex="1">
          <mxGeometry width="48" height="22" as="geometry">
            <mxRectangle width="48" height="22" as="alternateBounds" />
          </mxGeometry>
        </mxCell>
        <mxCell id="vNeIINF5kTcQfUYiP6Qm-22" value="tp_sexo" style="shape=partialRectangle;connectable=0;fillColor=none;top=0;left=0;bottom=0;right=0;align=left;spacingLeft=2;overflow=hidden;fontSize=11;" parent="vNeIINF5kTcQfUYiP6Qm-20" vertex="1">
          <mxGeometry x="48" width="126" height="22" as="geometry">
            <mxRectangle width="126" height="22" as="alternateBounds" />
          </mxGeometry>
        </mxCell>
        <mxCell id="vNeIINF5kTcQfUYiP6Qm-23" style="shape=tableRow;horizontal=0;startSize=0;swimlaneHead=0;swimlaneBody=0;fillColor=none;collapsible=0;dropTarget=0;points=[[0,0.5],[1,0.5]];portConstraint=eastwest;top=0;left=0;right=0;bottom=0;" parent="vNeIINF5kTcQfUYiP6Qm-1" vertex="1">
          <mxGeometry y="179" width="174" height="22" as="geometry" />
        </mxCell>
        <mxCell id="vNeIINF5kTcQfUYiP6Qm-24" value="string" style="shape=partialRectangle;connectable=0;fillColor=none;top=0;left=0;bottom=0;right=0;align=left;spacingLeft=2;overflow=hidden;fontSize=11;" parent="vNeIINF5kTcQfUYiP6Qm-23" vertex="1">
          <mxGeometry width="48" height="22" as="geometry">
            <mxRectangle width="48" height="22" as="alternateBounds" />
          </mxGeometry>
        </mxCell>
        <mxCell id="vNeIINF5kTcQfUYiP6Qm-25" value="nr_cpf_cnpj" style="shape=partialRectangle;connectable=0;fillColor=none;top=0;left=0;bottom=0;right=0;align=left;spacingLeft=2;overflow=hidden;fontSize=11;" parent="vNeIINF5kTcQfUYiP6Qm-23" vertex="1">
          <mxGeometry x="48" width="126" height="22" as="geometry">
            <mxRectangle width="126" height="22" as="alternateBounds" />
          </mxGeometry>
        </mxCell>
        <mxCell id="vNeIINF5kTcQfUYiP6Qm-26" style="shape=tableRow;horizontal=0;startSize=0;swimlaneHead=0;swimlaneBody=0;fillColor=none;collapsible=0;dropTarget=0;points=[[0,0.5],[1,0.5]];portConstraint=eastwest;top=0;left=0;right=0;bottom=0;" parent="vNeIINF5kTcQfUYiP6Qm-1" vertex="1">
          <mxGeometry y="201" width="174" height="22" as="geometry" />
        </mxCell>
        <mxCell id="vNeIINF5kTcQfUYiP6Qm-27" value="datetime" style="shape=partialRectangle;connectable=0;fillColor=none;top=0;left=0;bottom=0;right=0;align=left;spacingLeft=2;overflow=hidden;fontSize=11;" parent="vNeIINF5kTcQfUYiP6Qm-26" vertex="1">
          <mxGeometry width="48" height="22" as="geometry">
            <mxRectangle width="48" height="22" as="alternateBounds" />
          </mxGeometry>
        </mxCell>
        <mxCell id="vNeIINF5kTcQfUYiP6Qm-28" value="dt_nascimento" style="shape=partialRectangle;connectable=0;fillColor=none;top=0;left=0;bottom=0;right=0;align=left;spacingLeft=2;overflow=hidden;fontSize=11;" parent="vNeIINF5kTcQfUYiP6Qm-26" vertex="1">
          <mxGeometry x="48" width="126" height="22" as="geometry">
            <mxRectangle width="126" height="22" as="alternateBounds" />
          </mxGeometry>
        </mxCell>
        <mxCell id="vNeIINF5kTcQfUYiP6Qm-29" style="shape=tableRow;horizontal=0;startSize=0;swimlaneHead=0;swimlaneBody=0;fillColor=none;collapsible=0;dropTarget=0;points=[[0,0.5],[1,0.5]];portConstraint=eastwest;top=0;left=0;right=0;bottom=0;" parent="vNeIINF5kTcQfUYiP6Qm-1" vertex="1">
          <mxGeometry y="223" width="174" height="22" as="geometry" />
        </mxCell>
        <mxCell id="vNeIINF5kTcQfUYiP6Qm-30" value="string" style="shape=partialRectangle;connectable=0;fillColor=none;top=0;left=0;bottom=0;right=0;align=left;spacingLeft=2;overflow=hidden;fontSize=11;" parent="vNeIINF5kTcQfUYiP6Qm-29" vertex="1">
          <mxGeometry width="48" height="22" as="geometry">
            <mxRectangle width="48" height="22" as="alternateBounds" />
          </mxGeometry>
        </mxCell>
        <mxCell id="vNeIINF5kTcQfUYiP6Qm-31" value="nr_identidade" style="shape=partialRectangle;connectable=0;fillColor=none;top=0;left=0;bottom=0;right=0;align=left;spacingLeft=2;overflow=hidden;fontSize=11;" parent="vNeIINF5kTcQfUYiP6Qm-29" vertex="1">
          <mxGeometry x="48" width="126" height="22" as="geometry">
            <mxRectangle width="126" height="22" as="alternateBounds" />
          </mxGeometry>
        </mxCell>
        <mxCell id="vNeIINF5kTcQfUYiP6Qm-32" style="shape=tableRow;horizontal=0;startSize=0;swimlaneHead=0;swimlaneBody=0;fillColor=none;collapsible=0;dropTarget=0;points=[[0,0.5],[1,0.5]];portConstraint=eastwest;top=0;left=0;right=0;bottom=0;" parent="vNeIINF5kTcQfUYiP6Qm-1" vertex="1">
          <mxGeometry y="245" width="174" height="22" as="geometry" />
        </mxCell>
        <mxCell id="vNeIINF5kTcQfUYiP6Qm-33" value="string" style="shape=partialRectangle;connectable=0;fillColor=none;top=0;left=0;bottom=0;right=0;align=left;spacingLeft=2;overflow=hidden;fontSize=11;" parent="vNeIINF5kTcQfUYiP6Qm-32" vertex="1">
          <mxGeometry width="48" height="22" as="geometry">
            <mxRectangle width="48" height="22" as="alternateBounds" />
          </mxGeometry>
        </mxCell>
        <mxCell id="vNeIINF5kTcQfUYiP6Qm-34" value="ds_orgao_expedidor" style="shape=partialRectangle;connectable=0;fillColor=none;top=0;left=0;bottom=0;right=0;align=left;spacingLeft=2;overflow=hidden;fontSize=11;" parent="vNeIINF5kTcQfUYiP6Qm-32" vertex="1">
          <mxGeometry x="48" width="126" height="22" as="geometry">
            <mxRectangle width="126" height="22" as="alternateBounds" />
          </mxGeometry>
        </mxCell>
        <mxCell id="vNeIINF5kTcQfUYiP6Qm-35" style="shape=tableRow;horizontal=0;startSize=0;swimlaneHead=0;swimlaneBody=0;fillColor=none;collapsible=0;dropTarget=0;points=[[0,0.5],[1,0.5]];portConstraint=eastwest;top=0;left=0;right=0;bottom=0;" parent="vNeIINF5kTcQfUYiP6Qm-1" vertex="1">
          <mxGeometry y="267" width="174" height="22" as="geometry" />
        </mxCell>
        <mxCell id="vNeIINF5kTcQfUYiP6Qm-36" value="int" style="shape=partialRectangle;connectable=0;fillColor=none;top=0;left=0;bottom=0;right=0;align=left;spacingLeft=2;overflow=hidden;fontSize=11;" parent="vNeIINF5kTcQfUYiP6Qm-35" vertex="1">
          <mxGeometry width="48" height="22" as="geometry">
            <mxRectangle width="48" height="22" as="alternateBounds" />
          </mxGeometry>
        </mxCell>
        <mxCell id="vNeIINF5kTcQfUYiP6Qm-37" value="fk_uf_emissor" style="shape=partialRectangle;connectable=0;fillColor=none;top=0;left=0;bottom=0;right=0;align=left;spacingLeft=2;overflow=hidden;fontSize=11;" parent="vNeIINF5kTcQfUYiP6Qm-35" vertex="1">
          <mxGeometry x="48" width="126" height="22" as="geometry">
            <mxRectangle width="126" height="22" as="alternateBounds" />
          </mxGeometry>
        </mxCell>
        <mxCell id="vNeIINF5kTcQfUYiP6Qm-38" style="shape=tableRow;horizontal=0;startSize=0;swimlaneHead=0;swimlaneBody=0;fillColor=none;collapsible=0;dropTarget=0;points=[[0,0.5],[1,0.5]];portConstraint=eastwest;top=0;left=0;right=0;bottom=0;" parent="vNeIINF5kTcQfUYiP6Qm-1" vertex="1">
          <mxGeometry y="289" width="174" height="22" as="geometry" />
        </mxCell>
        <mxCell id="vNeIINF5kTcQfUYiP6Qm-39" value="int" style="shape=partialRectangle;connectable=0;fillColor=none;top=0;left=0;bottom=0;right=0;align=left;spacingLeft=2;overflow=hidden;fontSize=11;" parent="vNeIINF5kTcQfUYiP6Qm-38" vertex="1">
          <mxGeometry width="48" height="22" as="geometry">
            <mxRectangle width="48" height="22" as="alternateBounds" />
          </mxGeometry>
        </mxCell>
        <mxCell id="vNeIINF5kTcQfUYiP6Qm-40" value="tp_desativacao" style="shape=partialRectangle;connectable=0;fillColor=none;top=0;left=0;bottom=0;right=0;align=left;spacingLeft=2;overflow=hidden;fontSize=11;" parent="vNeIINF5kTcQfUYiP6Qm-38" vertex="1">
          <mxGeometry x="48" width="126" height="22" as="geometry">
            <mxRectangle width="126" height="22" as="alternateBounds" />
          </mxGeometry>
        </mxCell>
        <mxCell id="vNeIINF5kTcQfUYiP6Qm-41" style="shape=tableRow;horizontal=0;startSize=0;swimlaneHead=0;swimlaneBody=0;fillColor=none;collapsible=0;dropTarget=0;points=[[0,0.5],[1,0.5]];portConstraint=eastwest;top=0;left=0;right=0;bottom=0;" parent="vNeIINF5kTcQfUYiP6Qm-1" vertex="1">
          <mxGeometry y="311" width="174" height="22" as="geometry" />
        </mxCell>
        <mxCell id="vNeIINF5kTcQfUYiP6Qm-42" value="datetime" style="shape=partialRectangle;connectable=0;fillColor=none;top=0;left=0;bottom=0;right=0;align=left;spacingLeft=2;overflow=hidden;fontSize=11;" parent="vNeIINF5kTcQfUYiP6Qm-41" vertex="1">
          <mxGeometry width="48" height="22" as="geometry">
            <mxRectangle width="48" height="22" as="alternateBounds" />
          </mxGeometry>
        </mxCell>
        <mxCell id="vNeIINF5kTcQfUYiP6Qm-43" value="dt_desativacao" style="shape=partialRectangle;connectable=0;fillColor=none;top=0;left=0;bottom=0;right=0;align=left;spacingLeft=2;overflow=hidden;fontSize=11;" parent="vNeIINF5kTcQfUYiP6Qm-41" vertex="1">
          <mxGeometry x="48" width="126" height="22" as="geometry">
            <mxRectangle width="126" height="22" as="alternateBounds" />
          </mxGeometry>
        </mxCell>
        <mxCell id="vNeIINF5kTcQfUYiP6Qm-44" style="shape=tableRow;horizontal=0;startSize=0;swimlaneHead=0;swimlaneBody=0;fillColor=none;collapsible=0;dropTarget=0;points=[[0,0.5],[1,0.5]];portConstraint=eastwest;top=0;left=0;right=0;bottom=0;" parent="vNeIINF5kTcQfUYiP6Qm-1" vertex="1">
          <mxGeometry y="333" width="174" height="22" as="geometry" />
        </mxCell>
        <mxCell id="vNeIINF5kTcQfUYiP6Qm-45" value="string" style="shape=partialRectangle;connectable=0;fillColor=none;top=0;left=0;bottom=0;right=0;align=left;spacingLeft=2;overflow=hidden;fontSize=11;" parent="vNeIINF5kTcQfUYiP6Qm-44" vertex="1">
          <mxGeometry width="48" height="22" as="geometry">
            <mxRectangle width="48" height="22" as="alternateBounds" />
          </mxGeometry>
        </mxCell>
        <mxCell id="vNeIINF5kTcQfUYiP6Qm-46" value="nm_nacionalidade" style="shape=partialRectangle;connectable=0;fillColor=none;top=0;left=0;bottom=0;right=0;align=left;spacingLeft=2;overflow=hidden;fontSize=11;" parent="vNeIINF5kTcQfUYiP6Qm-44" vertex="1">
          <mxGeometry x="48" width="126" height="22" as="geometry">
            <mxRectangle width="126" height="22" as="alternateBounds" />
          </mxGeometry>
        </mxCell>
        <mxCell id="vNeIINF5kTcQfUYiP6Qm-47" style="shape=tableRow;horizontal=0;startSize=0;swimlaneHead=0;swimlaneBody=0;fillColor=none;collapsible=0;dropTarget=0;points=[[0,0.5],[1,0.5]];portConstraint=eastwest;top=0;left=0;right=0;bottom=0;" parent="vNeIINF5kTcQfUYiP6Qm-1" vertex="1">
          <mxGeometry y="355" width="174" height="22" as="geometry" />
        </mxCell>
        <mxCell id="vNeIINF5kTcQfUYiP6Qm-48" value="int" style="shape=partialRectangle;connectable=0;fillColor=none;top=0;left=0;bottom=0;right=0;align=left;spacingLeft=2;overflow=hidden;fontSize=11;" parent="vNeIINF5kTcQfUYiP6Qm-47" vertex="1">
          <mxGeometry width="48" height="22" as="geometry">
            <mxRectangle width="48" height="22" as="alternateBounds" />
          </mxGeometry>
        </mxCell>
        <mxCell id="vNeIINF5kTcQfUYiP6Qm-49" value="fk_est_civil" style="shape=partialRectangle;connectable=0;fillColor=none;top=0;left=0;bottom=0;right=0;align=left;spacingLeft=2;overflow=hidden;fontSize=11;" parent="vNeIINF5kTcQfUYiP6Qm-47" vertex="1">
          <mxGeometry x="48" width="126" height="22" as="geometry">
            <mxRectangle width="126" height="22" as="alternateBounds" />
          </mxGeometry>
        </mxCell>
        <mxCell id="vNeIINF5kTcQfUYiP6Qm-50" style="shape=tableRow;horizontal=0;startSize=0;swimlaneHead=0;swimlaneBody=0;fillColor=none;collapsible=0;dropTarget=0;points=[[0,0.5],[1,0.5]];portConstraint=eastwest;top=0;left=0;right=0;bottom=0;" parent="vNeIINF5kTcQfUYiP6Qm-1" vertex="1">
          <mxGeometry y="377" width="174" height="22" as="geometry" />
        </mxCell>
        <mxCell id="vNeIINF5kTcQfUYiP6Qm-51" value="string" style="shape=partialRectangle;connectable=0;fillColor=none;top=0;left=0;bottom=0;right=0;align=left;spacingLeft=2;overflow=hidden;fontSize=11;" parent="vNeIINF5kTcQfUYiP6Qm-50" vertex="1">
          <mxGeometry width="48" height="22" as="geometry">
            <mxRectangle width="48" height="22" as="alternateBounds" />
          </mxGeometry>
        </mxCell>
        <mxCell id="vNeIINF5kTcQfUYiP6Qm-52" value="nm_mae" style="shape=partialRectangle;connectable=0;fillColor=none;top=0;left=0;bottom=0;right=0;align=left;spacingLeft=2;overflow=hidden;fontSize=11;" parent="vNeIINF5kTcQfUYiP6Qm-50" vertex="1">
          <mxGeometry x="48" width="126" height="22" as="geometry">
            <mxRectangle width="126" height="22" as="alternateBounds" />
          </mxGeometry>
        </mxCell>
        <mxCell id="vNeIINF5kTcQfUYiP6Qm-53" style="shape=tableRow;horizontal=0;startSize=0;swimlaneHead=0;swimlaneBody=0;fillColor=none;collapsible=0;dropTarget=0;points=[[0,0.5],[1,0.5]];portConstraint=eastwest;top=0;left=0;right=0;bottom=0;" parent="vNeIINF5kTcQfUYiP6Qm-1" vertex="1">
          <mxGeometry y="399" width="174" height="22" as="geometry" />
        </mxCell>
        <mxCell id="vNeIINF5kTcQfUYiP6Qm-54" value="string" style="shape=partialRectangle;connectable=0;fillColor=none;top=0;left=0;bottom=0;right=0;align=left;spacingLeft=2;overflow=hidden;fontSize=11;" parent="vNeIINF5kTcQfUYiP6Qm-53" vertex="1">
          <mxGeometry width="48" height="22" as="geometry">
            <mxRectangle width="48" height="22" as="alternateBounds" />
          </mxGeometry>
        </mxCell>
        <mxCell id="vNeIINF5kTcQfUYiP6Qm-55" value="nm_pai" style="shape=partialRectangle;connectable=0;fillColor=none;top=0;left=0;bottom=0;right=0;align=left;spacingLeft=2;overflow=hidden;fontSize=11;" parent="vNeIINF5kTcQfUYiP6Qm-53" vertex="1">
          <mxGeometry x="48" width="126" height="22" as="geometry">
            <mxRectangle width="126" height="22" as="alternateBounds" />
          </mxGeometry>
        </mxCell>
        <mxCell id="vNeIINF5kTcQfUYiP6Qm-56" style="shape=tableRow;horizontal=0;startSize=0;swimlaneHead=0;swimlaneBody=0;fillColor=none;collapsible=0;dropTarget=0;points=[[0,0.5],[1,0.5]];portConstraint=eastwest;top=0;left=0;right=0;bottom=0;" parent="vNeIINF5kTcQfUYiP6Qm-1" vertex="1">
          <mxGeometry y="421" width="174" height="22" as="geometry" />
        </mxCell>
        <mxCell id="vNeIINF5kTcQfUYiP6Qm-57" value="string" style="shape=partialRectangle;connectable=0;fillColor=none;top=0;left=0;bottom=0;right=0;align=left;spacingLeft=2;overflow=hidden;fontSize=11;" parent="vNeIINF5kTcQfUYiP6Qm-56" vertex="1">
          <mxGeometry width="48" height="22" as="geometry">
            <mxRectangle width="48" height="22" as="alternateBounds" />
          </mxGeometry>
        </mxCell>
        <mxCell id="vNeIINF5kTcQfUYiP6Qm-58" value="nm_profissao" style="shape=partialRectangle;connectable=0;fillColor=none;top=0;left=0;bottom=0;right=0;align=left;spacingLeft=2;overflow=hidden;fontSize=11;" parent="vNeIINF5kTcQfUYiP6Qm-56" vertex="1">
          <mxGeometry x="48" width="126" height="22" as="geometry">
            <mxRectangle width="126" height="22" as="alternateBounds" />
          </mxGeometry>
        </mxCell>
        <mxCell id="vNeIINF5kTcQfUYiP6Qm-59" style="shape=tableRow;horizontal=0;startSize=0;swimlaneHead=0;swimlaneBody=0;fillColor=none;collapsible=0;dropTarget=0;points=[[0,0.5],[1,0.5]];portConstraint=eastwest;top=0;left=0;right=0;bottom=0;" parent="vNeIINF5kTcQfUYiP6Qm-1" vertex="1">
          <mxGeometry y="443" width="174" height="22" as="geometry" />
        </mxCell>
        <mxCell id="vNeIINF5kTcQfUYiP6Qm-60" value="string" style="shape=partialRectangle;connectable=0;fillColor=none;top=0;left=0;bottom=0;right=0;align=left;spacingLeft=2;overflow=hidden;fontSize=11;" parent="vNeIINF5kTcQfUYiP6Qm-59" vertex="1">
          <mxGeometry width="48" height="22" as="geometry">
            <mxRectangle width="48" height="22" as="alternateBounds" />
          </mxGeometry>
        </mxCell>
        <mxCell id="vNeIINF5kTcQfUYiP6Qm-61" value="nr_ins_produtor_rural" style="shape=partialRectangle;connectable=0;fillColor=none;top=0;left=0;bottom=0;right=0;align=left;spacingLeft=2;overflow=hidden;fontSize=11;" parent="vNeIINF5kTcQfUYiP6Qm-59" vertex="1">
          <mxGeometry x="48" width="126" height="22" as="geometry">
            <mxRectangle width="126" height="22" as="alternateBounds" />
          </mxGeometry>
        </mxCell>
        <mxCell id="vNeIINF5kTcQfUYiP6Qm-62" style="shape=tableRow;horizontal=0;startSize=0;swimlaneHead=0;swimlaneBody=0;fillColor=none;collapsible=0;dropTarget=0;points=[[0,0.5],[1,0.5]];portConstraint=eastwest;top=0;left=0;right=0;bottom=0;" parent="vNeIINF5kTcQfUYiP6Qm-1" vertex="1">
          <mxGeometry y="465" width="174" height="22" as="geometry" />
        </mxCell>
        <mxCell id="vNeIINF5kTcQfUYiP6Qm-63" value="string" style="shape=partialRectangle;connectable=0;fillColor=none;top=0;left=0;bottom=0;right=0;align=left;spacingLeft=2;overflow=hidden;fontSize=11;" parent="vNeIINF5kTcQfUYiP6Qm-62" vertex="1">
          <mxGeometry width="48" height="22" as="geometry">
            <mxRectangle width="48" height="22" as="alternateBounds" />
          </mxGeometry>
        </mxCell>
        <mxCell id="vNeIINF5kTcQfUYiP6Qm-64" value="dap" style="shape=partialRectangle;connectable=0;fillColor=none;top=0;left=0;bottom=0;right=0;align=left;spacingLeft=2;overflow=hidden;fontSize=11;" parent="vNeIINF5kTcQfUYiP6Qm-62" vertex="1">
          <mxGeometry x="48" width="126" height="22" as="geometry">
            <mxRectangle width="126" height="22" as="alternateBounds" />
          </mxGeometry>
        </mxCell>
        <mxCell id="vNeIINF5kTcQfUYiP6Qm-65" style="shape=tableRow;horizontal=0;startSize=0;swimlaneHead=0;swimlaneBody=0;fillColor=none;collapsible=0;dropTarget=0;points=[[0,0.5],[1,0.5]];portConstraint=eastwest;top=0;left=0;right=0;bottom=0;" parent="vNeIINF5kTcQfUYiP6Qm-1" vertex="1">
          <mxGeometry y="487" width="174" height="22" as="geometry" />
        </mxCell>
        <mxCell id="vNeIINF5kTcQfUYiP6Qm-66" value="string" style="shape=partialRectangle;connectable=0;fillColor=none;top=0;left=0;bottom=0;right=0;align=left;spacingLeft=2;overflow=hidden;fontSize=11;" parent="vNeIINF5kTcQfUYiP6Qm-65" vertex="1">
          <mxGeometry width="48" height="22" as="geometry">
            <mxRectangle width="48" height="22" as="alternateBounds" />
          </mxGeometry>
        </mxCell>
        <mxCell id="vNeIINF5kTcQfUYiP6Qm-67" value="tp_pessoa" style="shape=partialRectangle;connectable=0;fillColor=none;top=0;left=0;bottom=0;right=0;align=left;spacingLeft=2;overflow=hidden;fontSize=11;" parent="vNeIINF5kTcQfUYiP6Qm-65" vertex="1">
          <mxGeometry x="48" width="126" height="22" as="geometry">
            <mxRectangle width="126" height="22" as="alternateBounds" />
          </mxGeometry>
        </mxCell>
        <mxCell id="vNeIINF5kTcQfUYiP6Qm-68" style="shape=tableRow;horizontal=0;startSize=0;swimlaneHead=0;swimlaneBody=0;fillColor=none;collapsible=0;dropTarget=0;points=[[0,0.5],[1,0.5]];portConstraint=eastwest;top=0;left=0;right=0;bottom=0;" parent="vNeIINF5kTcQfUYiP6Qm-1" vertex="1">
          <mxGeometry y="509" width="174" height="22" as="geometry" />
        </mxCell>
        <mxCell id="vNeIINF5kTcQfUYiP6Qm-69" value="string" style="shape=partialRectangle;connectable=0;fillColor=none;top=0;left=0;bottom=0;right=0;align=left;spacingLeft=2;overflow=hidden;fontSize=11;" parent="vNeIINF5kTcQfUYiP6Qm-68" vertex="1">
          <mxGeometry width="48" height="22" as="geometry">
            <mxRectangle width="48" height="22" as="alternateBounds" />
          </mxGeometry>
        </mxCell>
        <mxCell id="vNeIINF5kTcQfUYiP6Qm-70" value="id_und_empresa" style="shape=partialRectangle;connectable=0;fillColor=none;top=0;left=0;bottom=0;right=0;align=left;spacingLeft=2;overflow=hidden;fontSize=11;" parent="vNeIINF5kTcQfUYiP6Qm-68" vertex="1">
          <mxGeometry x="48" width="126" height="22" as="geometry">
            <mxRectangle width="126" height="22" as="alternateBounds" />
          </mxGeometry>
        </mxCell>
        <mxCell id="vNeIINF5kTcQfUYiP6Qm-71" style="shape=tableRow;horizontal=0;startSize=0;swimlaneHead=0;swimlaneBody=0;fillColor=none;collapsible=0;dropTarget=0;points=[[0,0.5],[1,0.5]];portConstraint=eastwest;top=0;left=0;right=0;bottom=0;" parent="vNeIINF5kTcQfUYiP6Qm-1" vertex="1">
          <mxGeometry y="531" width="174" height="22" as="geometry" />
        </mxCell>
        <mxCell id="vNeIINF5kTcQfUYiP6Qm-72" value="int" style="shape=partialRectangle;connectable=0;fillColor=none;top=0;left=0;bottom=0;right=0;align=left;spacingLeft=2;overflow=hidden;fontSize=11;" parent="vNeIINF5kTcQfUYiP6Qm-71" vertex="1">
          <mxGeometry width="48" height="22" as="geometry">
            <mxRectangle width="48" height="22" as="alternateBounds" />
          </mxGeometry>
        </mxCell>
        <mxCell id="vNeIINF5kTcQfUYiP6Qm-73" value="sn_principal_provedor" style="shape=partialRectangle;connectable=0;fillColor=none;top=0;left=0;bottom=0;right=0;align=left;spacingLeft=2;overflow=hidden;fontSize=11;" parent="vNeIINF5kTcQfUYiP6Qm-71" vertex="1">
          <mxGeometry x="48" width="126" height="22" as="geometry">
            <mxRectangle width="126" height="22" as="alternateBounds" />
          </mxGeometry>
        </mxCell>
        <mxCell id="vNeIINF5kTcQfUYiP6Qm-74" style="shape=tableRow;horizontal=0;startSize=0;swimlaneHead=0;swimlaneBody=0;fillColor=none;collapsible=0;dropTarget=0;points=[[0,0.5],[1,0.5]];portConstraint=eastwest;top=0;left=0;right=0;bottom=0;" parent="vNeIINF5kTcQfUYiP6Qm-1" vertex="1">
          <mxGeometry y="553" width="174" height="22" as="geometry" />
        </mxCell>
        <mxCell id="vNeIINF5kTcQfUYiP6Qm-75" value="string" style="shape=partialRectangle;connectable=0;fillColor=none;top=0;left=0;bottom=0;right=0;align=left;spacingLeft=2;overflow=hidden;fontSize=11;" parent="vNeIINF5kTcQfUYiP6Qm-74" vertex="1">
          <mxGeometry width="48" height="22" as="geometry">
            <mxRectangle width="48" height="22" as="alternateBounds" />
          </mxGeometry>
        </mxCell>
        <mxCell id="vNeIINF5kTcQfUYiP6Qm-76" value="ds_email" style="shape=partialRectangle;connectable=0;fillColor=none;top=0;left=0;bottom=0;right=0;align=left;spacingLeft=2;overflow=hidden;fontSize=11;" parent="vNeIINF5kTcQfUYiP6Qm-74" vertex="1">
          <mxGeometry x="48" width="126" height="22" as="geometry">
            <mxRectangle width="126" height="22" as="alternateBounds" />
          </mxGeometry>
        </mxCell>
        <mxCell id="vNeIINF5kTcQfUYiP6Qm-77" style="shape=tableRow;horizontal=0;startSize=0;swimlaneHead=0;swimlaneBody=0;fillColor=none;collapsible=0;dropTarget=0;points=[[0,0.5],[1,0.5]];portConstraint=eastwest;top=0;left=0;right=0;bottom=0;" parent="vNeIINF5kTcQfUYiP6Qm-1" vertex="1">
          <mxGeometry y="575" width="174" height="22" as="geometry" />
        </mxCell>
        <mxCell id="vNeIINF5kTcQfUYiP6Qm-78" value="datetime" style="shape=partialRectangle;connectable=0;fillColor=none;top=0;left=0;bottom=0;right=0;align=left;spacingLeft=2;overflow=hidden;fontSize=11;" parent="vNeIINF5kTcQfUYiP6Qm-77" vertex="1">
          <mxGeometry width="48" height="22" as="geometry">
            <mxRectangle width="48" height="22" as="alternateBounds" />
          </mxGeometry>
        </mxCell>
        <mxCell id="vNeIINF5kTcQfUYiP6Qm-79" value="dt_update_record" style="shape=partialRectangle;connectable=0;fillColor=none;top=0;left=0;bottom=0;right=0;align=left;spacingLeft=2;overflow=hidden;fontSize=11;" parent="vNeIINF5kTcQfUYiP6Qm-77" vertex="1">
          <mxGeometry x="48" width="126" height="22" as="geometry">
            <mxRectangle width="126" height="22" as="alternateBounds" />
          </mxGeometry>
        </mxCell>
        <mxCell id="vNeIINF5kTcQfUYiP6Qm-80" style="shape=tableRow;horizontal=0;startSize=0;swimlaneHead=0;swimlaneBody=0;fillColor=none;collapsible=0;dropTarget=0;points=[[0,0.5],[1,0.5]];portConstraint=eastwest;top=0;left=0;right=0;bottom=0;" parent="vNeIINF5kTcQfUYiP6Qm-1" vertex="1">
          <mxGeometry y="597" width="174" height="22" as="geometry" />
        </mxCell>
        <mxCell id="vNeIINF5kTcQfUYiP6Qm-81" value="string" style="shape=partialRectangle;connectable=0;fillColor=none;top=0;left=0;bottom=0;right=0;align=left;spacingLeft=2;overflow=hidden;fontSize=11;" parent="vNeIINF5kTcQfUYiP6Qm-80" vertex="1">
          <mxGeometry width="48" height="22" as="geometry">
            <mxRectangle width="48" height="22" as="alternateBounds" />
          </mxGeometry>
        </mxCell>
        <mxCell id="vNeIINF5kTcQfUYiP6Qm-82" value="id_sincronismo" style="shape=partialRectangle;connectable=0;fillColor=none;top=0;left=0;bottom=0;right=0;align=left;spacingLeft=2;overflow=hidden;fontSize=11;" parent="vNeIINF5kTcQfUYiP6Qm-80" vertex="1">
          <mxGeometry x="48" width="126" height="22" as="geometry">
            <mxRectangle width="126" height="22" as="alternateBounds" />
          </mxGeometry>
        </mxCell>
        <mxCell id="vNeIINF5kTcQfUYiP6Qm-83" style="shape=tableRow;horizontal=0;startSize=0;swimlaneHead=0;swimlaneBody=0;fillColor=none;collapsible=0;dropTarget=0;points=[[0,0.5],[1,0.5]];portConstraint=eastwest;top=0;left=0;right=0;bottom=0;" parent="vNeIINF5kTcQfUYiP6Qm-1" vertex="1">
          <mxGeometry y="619" width="174" height="22" as="geometry" />
        </mxCell>
        <mxCell id="vNeIINF5kTcQfUYiP6Qm-84" value="int" style="shape=partialRectangle;connectable=0;fillColor=none;top=0;left=0;bottom=0;right=0;align=left;spacingLeft=2;overflow=hidden;fontSize=11;" parent="vNeIINF5kTcQfUYiP6Qm-83" vertex="1">
          <mxGeometry width="48" height="22" as="geometry">
            <mxRectangle width="48" height="22" as="alternateBounds" />
          </mxGeometry>
        </mxCell>
        <mxCell id="vNeIINF5kTcQfUYiP6Qm-85" value="sn_ctd" style="shape=partialRectangle;connectable=0;fillColor=none;top=0;left=0;bottom=0;right=0;align=left;spacingLeft=2;overflow=hidden;fontSize=11;" parent="vNeIINF5kTcQfUYiP6Qm-83" vertex="1">
          <mxGeometry x="48" width="126" height="22" as="geometry">
            <mxRectangle width="126" height="22" as="alternateBounds" />
          </mxGeometry>
        </mxCell>
        <mxCell id="vNeIINF5kTcQfUYiP6Qm-86" style="shape=tableRow;horizontal=0;startSize=0;swimlaneHead=0;swimlaneBody=0;fillColor=none;collapsible=0;dropTarget=0;points=[[0,0.5],[1,0.5]];portConstraint=eastwest;top=0;left=0;right=0;bottom=0;" parent="vNeIINF5kTcQfUYiP6Qm-1" vertex="1">
          <mxGeometry y="641" width="174" height="22" as="geometry" />
        </mxCell>
        <mxCell id="vNeIINF5kTcQfUYiP6Qm-87" value="string" style="shape=partialRectangle;connectable=0;fillColor=none;top=0;left=0;bottom=0;right=0;align=left;spacingLeft=2;overflow=hidden;fontSize=11;" parent="vNeIINF5kTcQfUYiP6Qm-86" vertex="1">
          <mxGeometry width="48" height="22" as="geometry">
            <mxRectangle width="48" height="22" as="alternateBounds" />
          </mxGeometry>
        </mxCell>
        <mxCell id="vNeIINF5kTcQfUYiP6Qm-88" value="caf" style="shape=partialRectangle;connectable=0;fillColor=none;top=0;left=0;bottom=0;right=0;align=left;spacingLeft=2;overflow=hidden;fontSize=11;" parent="vNeIINF5kTcQfUYiP6Qm-86" vertex="1">
          <mxGeometry x="48" width="126" height="22" as="geometry">
            <mxRectangle width="126" height="22" as="alternateBounds" />
          </mxGeometry>
        </mxCell>
        <mxCell id="vNeIINF5kTcQfUYiP6Qm-89" value="ProdutorPropriedades" style="shape=table;startSize=25;container=1;collapsible=0;childLayout=tableLayout;fixedRows=1;rowLines=1;fontStyle=1;align=center;resizeLast=1;fillColor=#dae8fc;strokeColor=#6c8ebf;fontColor=#121212;" parent="1" vertex="1">
          <mxGeometry x="140" y="840" width="146" height="91" as="geometry" />
        </mxCell>
        <mxCell id="vNeIINF5kTcQfUYiP6Qm-90" style="shape=tableRow;horizontal=0;startSize=0;swimlaneHead=0;swimlaneBody=0;fillColor=none;collapsible=0;dropTarget=0;points=[[0,0.5],[1,0.5]];portConstraint=eastwest;top=0;left=0;right=0;bottom=0;" parent="vNeIINF5kTcQfUYiP6Qm-89" vertex="1">
          <mxGeometry y="25" width="146" height="22" as="geometry" />
        </mxCell>
        <mxCell id="vNeIINF5kTcQfUYiP6Qm-91" value="bigint" style="shape=partialRectangle;connectable=0;fillColor=none;top=0;left=0;bottom=0;right=0;align=left;spacingLeft=2;overflow=hidden;fontSize=11;" parent="vNeIINF5kTcQfUYiP6Qm-90" vertex="1">
          <mxGeometry width="36" height="22" as="geometry">
            <mxRectangle width="36" height="22" as="alternateBounds" />
          </mxGeometry>
        </mxCell>
        <mxCell id="vNeIINF5kTcQfUYiP6Qm-92" value="id" style="shape=partialRectangle;connectable=0;fillColor=none;top=0;left=0;bottom=0;right=0;align=left;spacingLeft=2;overflow=hidden;fontSize=11;" parent="vNeIINF5kTcQfUYiP6Qm-90" vertex="1">
          <mxGeometry x="36" width="110" height="22" as="geometry">
            <mxRectangle width="110" height="22" as="alternateBounds" />
          </mxGeometry>
        </mxCell>
        <mxCell id="vNeIINF5kTcQfUYiP6Qm-93" style="shape=tableRow;horizontal=0;startSize=0;swimlaneHead=0;swimlaneBody=0;fillColor=none;collapsible=0;dropTarget=0;points=[[0,0.5],[1,0.5]];portConstraint=eastwest;top=0;left=0;right=0;bottom=0;" parent="vNeIINF5kTcQfUYiP6Qm-89" vertex="1">
          <mxGeometry y="47" width="146" height="22" as="geometry" />
        </mxCell>
        <mxCell id="vNeIINF5kTcQfUYiP6Qm-94" value="bigint" style="shape=partialRectangle;connectable=0;fillColor=none;top=0;left=0;bottom=0;right=0;align=left;spacingLeft=2;overflow=hidden;fontSize=11;" parent="vNeIINF5kTcQfUYiP6Qm-93" vertex="1">
          <mxGeometry width="36" height="22" as="geometry">
            <mxRectangle width="36" height="22" as="alternateBounds" />
          </mxGeometry>
        </mxCell>
        <mxCell id="vNeIINF5kTcQfUYiP6Qm-95" value="produtor_id" style="shape=partialRectangle;connectable=0;fillColor=none;top=0;left=0;bottom=0;right=0;align=left;spacingLeft=2;overflow=hidden;fontSize=11;" parent="vNeIINF5kTcQfUYiP6Qm-93" vertex="1">
          <mxGeometry x="36" width="110" height="22" as="geometry">
            <mxRectangle width="110" height="22" as="alternateBounds" />
          </mxGeometry>
        </mxCell>
        <mxCell id="vNeIINF5kTcQfUYiP6Qm-96" style="shape=tableRow;horizontal=0;startSize=0;swimlaneHead=0;swimlaneBody=0;fillColor=none;collapsible=0;dropTarget=0;points=[[0,0.5],[1,0.5]];portConstraint=eastwest;top=0;left=0;right=0;bottom=0;" parent="vNeIINF5kTcQfUYiP6Qm-89" vertex="1">
          <mxGeometry y="69" width="146" height="22" as="geometry" />
        </mxCell>
        <mxCell id="vNeIINF5kTcQfUYiP6Qm-97" value="bigint" style="shape=partialRectangle;connectable=0;fillColor=none;top=0;left=0;bottom=0;right=0;align=left;spacingLeft=2;overflow=hidden;fontSize=11;" parent="vNeIINF5kTcQfUYiP6Qm-96" vertex="1">
          <mxGeometry width="36" height="22" as="geometry">
            <mxRectangle width="36" height="22" as="alternateBounds" />
          </mxGeometry>
        </mxCell>
        <mxCell id="vNeIINF5kTcQfUYiP6Qm-98" value="propriedade_id" style="shape=partialRectangle;connectable=0;fillColor=none;top=0;left=0;bottom=0;right=0;align=left;spacingLeft=2;overflow=hidden;fontSize=11;" parent="vNeIINF5kTcQfUYiP6Qm-96" vertex="1">
          <mxGeometry x="36" width="110" height="22" as="geometry">
            <mxRectangle width="110" height="22" as="alternateBounds" />
          </mxGeometry>
        </mxCell>
        <mxCell id="vNeIINF5kTcQfUYiP6Qm-99" value="Propriedade" style="shape=table;startSize=25;container=1;collapsible=0;childLayout=tableLayout;fixedRows=1;rowLines=1;fontStyle=1;align=center;resizeLast=1;fillColor=#dae8fc;strokeColor=#6c8ebf;fontColor=#000000;" parent="1" vertex="1">
          <mxGeometry x="326" y="110" width="186" height="685" as="geometry" />
        </mxCell>
        <mxCell id="vNeIINF5kTcQfUYiP6Qm-100" style="shape=tableRow;horizontal=0;startSize=0;swimlaneHead=0;swimlaneBody=0;fillColor=none;collapsible=0;dropTarget=0;points=[[0,0.5],[1,0.5]];portConstraint=eastwest;top=0;left=0;right=0;bottom=0;" parent="vNeIINF5kTcQfUYiP6Qm-99" vertex="1">
          <mxGeometry y="25" width="186" height="22" as="geometry" />
        </mxCell>
        <mxCell id="vNeIINF5kTcQfUYiP6Qm-101" value="bigint" style="shape=partialRectangle;connectable=0;fillColor=none;top=0;left=0;bottom=0;right=0;align=left;spacingLeft=2;overflow=hidden;fontSize=11;" parent="vNeIINF5kTcQfUYiP6Qm-100" vertex="1">
          <mxGeometry width="48" height="22" as="geometry">
            <mxRectangle width="48" height="22" as="alternateBounds" />
          </mxGeometry>
        </mxCell>
        <mxCell id="vNeIINF5kTcQfUYiP6Qm-102" value="id_pl_propriedade" style="shape=partialRectangle;connectable=0;fillColor=none;top=0;left=0;bottom=0;right=0;align=left;spacingLeft=2;overflow=hidden;fontSize=11;" parent="vNeIINF5kTcQfUYiP6Qm-100" vertex="1">
          <mxGeometry x="48" width="138" height="22" as="geometry">
            <mxRectangle width="138" height="22" as="alternateBounds" />
          </mxGeometry>
        </mxCell>
        <mxCell id="vNeIINF5kTcQfUYiP6Qm-103" style="shape=tableRow;horizontal=0;startSize=0;swimlaneHead=0;swimlaneBody=0;fillColor=none;collapsible=0;dropTarget=0;points=[[0,0.5],[1,0.5]];portConstraint=eastwest;top=0;left=0;right=0;bottom=0;" parent="vNeIINF5kTcQfUYiP6Qm-99" vertex="1">
          <mxGeometry y="47" width="186" height="22" as="geometry" />
        </mxCell>
        <mxCell id="vNeIINF5kTcQfUYiP6Qm-104" value="string" style="shape=partialRectangle;connectable=0;fillColor=none;top=0;left=0;bottom=0;right=0;align=left;spacingLeft=2;overflow=hidden;fontSize=11;" parent="vNeIINF5kTcQfUYiP6Qm-103" vertex="1">
          <mxGeometry width="48" height="22" as="geometry">
            <mxRectangle width="48" height="22" as="alternateBounds" />
          </mxGeometry>
        </mxCell>
        <mxCell id="vNeIINF5kTcQfUYiP6Qm-105" value="nome_propriedade" style="shape=partialRectangle;connectable=0;fillColor=none;top=0;left=0;bottom=0;right=0;align=left;spacingLeft=2;overflow=hidden;fontSize=11;" parent="vNeIINF5kTcQfUYiP6Qm-103" vertex="1">
          <mxGeometry x="48" width="138" height="22" as="geometry">
            <mxRectangle width="138" height="22" as="alternateBounds" />
          </mxGeometry>
        </mxCell>
        <mxCell id="vNeIINF5kTcQfUYiP6Qm-106" style="shape=tableRow;horizontal=0;startSize=0;swimlaneHead=0;swimlaneBody=0;fillColor=none;collapsible=0;dropTarget=0;points=[[0,0.5],[1,0.5]];portConstraint=eastwest;top=0;left=0;right=0;bottom=0;" parent="vNeIINF5kTcQfUYiP6Qm-99" vertex="1">
          <mxGeometry y="69" width="186" height="22" as="geometry" />
        </mxCell>
        <mxCell id="vNeIINF5kTcQfUYiP6Qm-107" value="string" style="shape=partialRectangle;connectable=0;fillColor=none;top=0;left=0;bottom=0;right=0;align=left;spacingLeft=2;overflow=hidden;fontSize=11;" parent="vNeIINF5kTcQfUYiP6Qm-106" vertex="1">
          <mxGeometry width="48" height="22" as="geometry">
            <mxRectangle width="48" height="22" as="alternateBounds" />
          </mxGeometry>
        </mxCell>
        <mxCell id="vNeIINF5kTcQfUYiP6Qm-108" value="logradouro" style="shape=partialRectangle;connectable=0;fillColor=none;top=0;left=0;bottom=0;right=0;align=left;spacingLeft=2;overflow=hidden;fontSize=11;" parent="vNeIINF5kTcQfUYiP6Qm-106" vertex="1">
          <mxGeometry x="48" width="138" height="22" as="geometry">
            <mxRectangle width="138" height="22" as="alternateBounds" />
          </mxGeometry>
        </mxCell>
        <mxCell id="vNeIINF5kTcQfUYiP6Qm-109" style="shape=tableRow;horizontal=0;startSize=0;swimlaneHead=0;swimlaneBody=0;fillColor=none;collapsible=0;dropTarget=0;points=[[0,0.5],[1,0.5]];portConstraint=eastwest;top=0;left=0;right=0;bottom=0;" parent="vNeIINF5kTcQfUYiP6Qm-99" vertex="1">
          <mxGeometry y="91" width="186" height="22" as="geometry" />
        </mxCell>
        <mxCell id="vNeIINF5kTcQfUYiP6Qm-110" value="string" style="shape=partialRectangle;connectable=0;fillColor=none;top=0;left=0;bottom=0;right=0;align=left;spacingLeft=2;overflow=hidden;fontSize=11;" parent="vNeIINF5kTcQfUYiP6Qm-109" vertex="1">
          <mxGeometry width="48" height="22" as="geometry">
            <mxRectangle width="48" height="22" as="alternateBounds" />
          </mxGeometry>
        </mxCell>
        <mxCell id="vNeIINF5kTcQfUYiP6Qm-111" value="bairro" style="shape=partialRectangle;connectable=0;fillColor=none;top=0;left=0;bottom=0;right=0;align=left;spacingLeft=2;overflow=hidden;fontSize=11;" parent="vNeIINF5kTcQfUYiP6Qm-109" vertex="1">
          <mxGeometry x="48" width="138" height="22" as="geometry">
            <mxRectangle width="138" height="22" as="alternateBounds" />
          </mxGeometry>
        </mxCell>
        <mxCell id="vNeIINF5kTcQfUYiP6Qm-112" style="shape=tableRow;horizontal=0;startSize=0;swimlaneHead=0;swimlaneBody=0;fillColor=none;collapsible=0;dropTarget=0;points=[[0,0.5],[1,0.5]];portConstraint=eastwest;top=0;left=0;right=0;bottom=0;" parent="vNeIINF5kTcQfUYiP6Qm-99" vertex="1">
          <mxGeometry y="113" width="186" height="22" as="geometry" />
        </mxCell>
        <mxCell id="vNeIINF5kTcQfUYiP6Qm-113" value="string" style="shape=partialRectangle;connectable=0;fillColor=none;top=0;left=0;bottom=0;right=0;align=left;spacingLeft=2;overflow=hidden;fontSize=11;" parent="vNeIINF5kTcQfUYiP6Qm-112" vertex="1">
          <mxGeometry width="48" height="22" as="geometry">
            <mxRectangle width="48" height="22" as="alternateBounds" />
          </mxGeometry>
        </mxCell>
        <mxCell id="vNeIINF5kTcQfUYiP6Qm-114" value="complemento" style="shape=partialRectangle;connectable=0;fillColor=none;top=0;left=0;bottom=0;right=0;align=left;spacingLeft=2;overflow=hidden;fontSize=11;" parent="vNeIINF5kTcQfUYiP6Qm-112" vertex="1">
          <mxGeometry x="48" width="138" height="22" as="geometry">
            <mxRectangle width="138" height="22" as="alternateBounds" />
          </mxGeometry>
        </mxCell>
        <mxCell id="vNeIINF5kTcQfUYiP6Qm-115" style="shape=tableRow;horizontal=0;startSize=0;swimlaneHead=0;swimlaneBody=0;fillColor=none;collapsible=0;dropTarget=0;points=[[0,0.5],[1,0.5]];portConstraint=eastwest;top=0;left=0;right=0;bottom=0;" parent="vNeIINF5kTcQfUYiP6Qm-99" vertex="1">
          <mxGeometry y="135" width="186" height="22" as="geometry" />
        </mxCell>
        <mxCell id="vNeIINF5kTcQfUYiP6Qm-116" value="string" style="shape=partialRectangle;connectable=0;fillColor=none;top=0;left=0;bottom=0;right=0;align=left;spacingLeft=2;overflow=hidden;fontSize=11;" parent="vNeIINF5kTcQfUYiP6Qm-115" vertex="1">
          <mxGeometry width="48" height="22" as="geometry">
            <mxRectangle width="48" height="22" as="alternateBounds" />
          </mxGeometry>
        </mxCell>
        <mxCell id="vNeIINF5kTcQfUYiP6Qm-117" value="cep" style="shape=partialRectangle;connectable=0;fillColor=none;top=0;left=0;bottom=0;right=0;align=left;spacingLeft=2;overflow=hidden;fontSize=11;" parent="vNeIINF5kTcQfUYiP6Qm-115" vertex="1">
          <mxGeometry x="48" width="138" height="22" as="geometry">
            <mxRectangle width="138" height="22" as="alternateBounds" />
          </mxGeometry>
        </mxCell>
        <mxCell id="vNeIINF5kTcQfUYiP6Qm-118" style="shape=tableRow;horizontal=0;startSize=0;swimlaneHead=0;swimlaneBody=0;fillColor=none;collapsible=0;dropTarget=0;points=[[0,0.5],[1,0.5]];portConstraint=eastwest;top=0;left=0;right=0;bottom=0;" parent="vNeIINF5kTcQfUYiP6Qm-99" vertex="1">
          <mxGeometry y="157" width="186" height="22" as="geometry" />
        </mxCell>
        <mxCell id="vNeIINF5kTcQfUYiP6Qm-119" value="string" style="shape=partialRectangle;connectable=0;fillColor=none;top=0;left=0;bottom=0;right=0;align=left;spacingLeft=2;overflow=hidden;fontSize=11;" parent="vNeIINF5kTcQfUYiP6Qm-118" vertex="1">
          <mxGeometry width="48" height="22" as="geometry">
            <mxRectangle width="48" height="22" as="alternateBounds" />
          </mxGeometry>
        </mxCell>
        <mxCell id="vNeIINF5kTcQfUYiP6Qm-120" value="numero" style="shape=partialRectangle;connectable=0;fillColor=none;top=0;left=0;bottom=0;right=0;align=left;spacingLeft=2;overflow=hidden;fontSize=11;" parent="vNeIINF5kTcQfUYiP6Qm-118" vertex="1">
          <mxGeometry x="48" width="138" height="22" as="geometry">
            <mxRectangle width="138" height="22" as="alternateBounds" />
          </mxGeometry>
        </mxCell>
        <mxCell id="vNeIINF5kTcQfUYiP6Qm-121" style="shape=tableRow;horizontal=0;startSize=0;swimlaneHead=0;swimlaneBody=0;fillColor=none;collapsible=0;dropTarget=0;points=[[0,0.5],[1,0.5]];portConstraint=eastwest;top=0;left=0;right=0;bottom=0;" parent="vNeIINF5kTcQfUYiP6Qm-99" vertex="1">
          <mxGeometry y="179" width="186" height="22" as="geometry" />
        </mxCell>
        <mxCell id="vNeIINF5kTcQfUYiP6Qm-122" value="float" style="shape=partialRectangle;connectable=0;fillColor=none;top=0;left=0;bottom=0;right=0;align=left;spacingLeft=2;overflow=hidden;fontSize=11;" parent="vNeIINF5kTcQfUYiP6Qm-121" vertex="1">
          <mxGeometry width="48" height="22" as="geometry">
            <mxRectangle width="48" height="22" as="alternateBounds" />
          </mxGeometry>
        </mxCell>
        <mxCell id="vNeIINF5kTcQfUYiP6Qm-123" value="area_total" style="shape=partialRectangle;connectable=0;fillColor=none;top=0;left=0;bottom=0;right=0;align=left;spacingLeft=2;overflow=hidden;fontSize=11;" parent="vNeIINF5kTcQfUYiP6Qm-121" vertex="1">
          <mxGeometry x="48" width="138" height="22" as="geometry">
            <mxRectangle width="138" height="22" as="alternateBounds" />
          </mxGeometry>
        </mxCell>
        <mxCell id="vNeIINF5kTcQfUYiP6Qm-124" style="shape=tableRow;horizontal=0;startSize=0;swimlaneHead=0;swimlaneBody=0;fillColor=none;collapsible=0;dropTarget=0;points=[[0,0.5],[1,0.5]];portConstraint=eastwest;top=0;left=0;right=0;bottom=0;" parent="vNeIINF5kTcQfUYiP6Qm-99" vertex="1">
          <mxGeometry y="201" width="186" height="22" as="geometry" />
        </mxCell>
        <mxCell id="vNeIINF5kTcQfUYiP6Qm-125" value="string" style="shape=partialRectangle;connectable=0;fillColor=none;top=0;left=0;bottom=0;right=0;align=left;spacingLeft=2;overflow=hidden;fontSize=11;" parent="vNeIINF5kTcQfUYiP6Qm-124" vertex="1">
          <mxGeometry width="48" height="22" as="geometry">
            <mxRectangle width="48" height="22" as="alternateBounds" />
          </mxGeometry>
        </mxCell>
        <mxCell id="vNeIINF5kTcQfUYiP6Qm-126" value="geo_ponto" style="shape=partialRectangle;connectable=0;fillColor=none;top=0;left=0;bottom=0;right=0;align=left;spacingLeft=2;overflow=hidden;fontSize=11;" parent="vNeIINF5kTcQfUYiP6Qm-124" vertex="1">
          <mxGeometry x="48" width="138" height="22" as="geometry">
            <mxRectangle width="138" height="22" as="alternateBounds" />
          </mxGeometry>
        </mxCell>
        <mxCell id="vNeIINF5kTcQfUYiP6Qm-127" style="shape=tableRow;horizontal=0;startSize=0;swimlaneHead=0;swimlaneBody=0;fillColor=none;collapsible=0;dropTarget=0;points=[[0,0.5],[1,0.5]];portConstraint=eastwest;top=0;left=0;right=0;bottom=0;" parent="vNeIINF5kTcQfUYiP6Qm-99" vertex="1">
          <mxGeometry y="223" width="186" height="22" as="geometry" />
        </mxCell>
        <mxCell id="vNeIINF5kTcQfUYiP6Qm-128" value="string" style="shape=partialRectangle;connectable=0;fillColor=none;top=0;left=0;bottom=0;right=0;align=left;spacingLeft=2;overflow=hidden;fontSize=11;" parent="vNeIINF5kTcQfUYiP6Qm-127" vertex="1">
          <mxGeometry width="48" height="22" as="geometry">
            <mxRectangle width="48" height="22" as="alternateBounds" />
          </mxGeometry>
        </mxCell>
        <mxCell id="vNeIINF5kTcQfUYiP6Qm-129" value="geo_ponto_texto" style="shape=partialRectangle;connectable=0;fillColor=none;top=0;left=0;bottom=0;right=0;align=left;spacingLeft=2;overflow=hidden;fontSize=11;" parent="vNeIINF5kTcQfUYiP6Qm-127" vertex="1">
          <mxGeometry x="48" width="138" height="22" as="geometry">
            <mxRectangle width="138" height="22" as="alternateBounds" />
          </mxGeometry>
        </mxCell>
        <mxCell id="vNeIINF5kTcQfUYiP6Qm-130" style="shape=tableRow;horizontal=0;startSize=0;swimlaneHead=0;swimlaneBody=0;fillColor=none;collapsible=0;dropTarget=0;points=[[0,0.5],[1,0.5]];portConstraint=eastwest;top=0;left=0;right=0;bottom=0;" parent="vNeIINF5kTcQfUYiP6Qm-99" vertex="1">
          <mxGeometry y="245" width="186" height="22" as="geometry" />
        </mxCell>
        <mxCell id="vNeIINF5kTcQfUYiP6Qm-131" value="boolean" style="shape=partialRectangle;connectable=0;fillColor=none;top=0;left=0;bottom=0;right=0;align=left;spacingLeft=2;overflow=hidden;fontSize=11;" parent="vNeIINF5kTcQfUYiP6Qm-130" vertex="1">
          <mxGeometry width="48" height="22" as="geometry">
            <mxRectangle width="48" height="22" as="alternateBounds" />
          </mxGeometry>
        </mxCell>
        <mxCell id="vNeIINF5kTcQfUYiP6Qm-132" value="area_condominio" style="shape=partialRectangle;connectable=0;fillColor=none;top=0;left=0;bottom=0;right=0;align=left;spacingLeft=2;overflow=hidden;fontSize=11;" parent="vNeIINF5kTcQfUYiP6Qm-130" vertex="1">
          <mxGeometry x="48" width="138" height="22" as="geometry">
            <mxRectangle width="138" height="22" as="alternateBounds" />
          </mxGeometry>
        </mxCell>
        <mxCell id="vNeIINF5kTcQfUYiP6Qm-133" style="shape=tableRow;horizontal=0;startSize=0;swimlaneHead=0;swimlaneBody=0;fillColor=none;collapsible=0;dropTarget=0;points=[[0,0.5],[1,0.5]];portConstraint=eastwest;top=0;left=0;right=0;bottom=0;" parent="vNeIINF5kTcQfUYiP6Qm-99" vertex="1">
          <mxGeometry y="267" width="186" height="22" as="geometry" />
        </mxCell>
        <mxCell id="vNeIINF5kTcQfUYiP6Qm-134" value="string" style="shape=partialRectangle;connectable=0;fillColor=none;top=0;left=0;bottom=0;right=0;align=left;spacingLeft=2;overflow=hidden;fontSize=11;" parent="vNeIINF5kTcQfUYiP6Qm-133" vertex="1">
          <mxGeometry width="48" height="22" as="geometry">
            <mxRectangle width="48" height="22" as="alternateBounds" />
          </mxGeometry>
        </mxCell>
        <mxCell id="vNeIINF5kTcQfUYiP6Qm-135" value="origem_ocupacao" style="shape=partialRectangle;connectable=0;fillColor=none;top=0;left=0;bottom=0;right=0;align=left;spacingLeft=2;overflow=hidden;fontSize=11;" parent="vNeIINF5kTcQfUYiP6Qm-133" vertex="1">
          <mxGeometry x="48" width="138" height="22" as="geometry">
            <mxRectangle width="138" height="22" as="alternateBounds" />
          </mxGeometry>
        </mxCell>
        <mxCell id="vNeIINF5kTcQfUYiP6Qm-136" style="shape=tableRow;horizontal=0;startSize=0;swimlaneHead=0;swimlaneBody=0;fillColor=none;collapsible=0;dropTarget=0;points=[[0,0.5],[1,0.5]];portConstraint=eastwest;top=0;left=0;right=0;bottom=0;" parent="vNeIINF5kTcQfUYiP6Qm-99" vertex="1">
          <mxGeometry y="289" width="186" height="22" as="geometry" />
        </mxCell>
        <mxCell id="vNeIINF5kTcQfUYiP6Qm-137" value="string" style="shape=partialRectangle;connectable=0;fillColor=none;top=0;left=0;bottom=0;right=0;align=left;spacingLeft=2;overflow=hidden;fontSize=11;" parent="vNeIINF5kTcQfUYiP6Qm-136" vertex="1">
          <mxGeometry width="48" height="22" as="geometry">
            <mxRectangle width="48" height="22" as="alternateBounds" />
          </mxGeometry>
        </mxCell>
        <mxCell id="vNeIINF5kTcQfUYiP6Qm-138" value="atividade_principal" style="shape=partialRectangle;connectable=0;fillColor=none;top=0;left=0;bottom=0;right=0;align=left;spacingLeft=2;overflow=hidden;fontSize=11;" parent="vNeIINF5kTcQfUYiP6Qm-136" vertex="1">
          <mxGeometry x="48" width="138" height="22" as="geometry">
            <mxRectangle width="138" height="22" as="alternateBounds" />
          </mxGeometry>
        </mxCell>
        <mxCell id="vNeIINF5kTcQfUYiP6Qm-139" style="shape=tableRow;horizontal=0;startSize=0;swimlaneHead=0;swimlaneBody=0;fillColor=none;collapsible=0;dropTarget=0;points=[[0,0.5],[1,0.5]];portConstraint=eastwest;top=0;left=0;right=0;bottom=0;" parent="vNeIINF5kTcQfUYiP6Qm-99" vertex="1">
          <mxGeometry y="311" width="186" height="22" as="geometry" />
        </mxCell>
        <mxCell id="vNeIINF5kTcQfUYiP6Qm-140" value="string" style="shape=partialRectangle;connectable=0;fillColor=none;top=0;left=0;bottom=0;right=0;align=left;spacingLeft=2;overflow=hidden;fontSize=11;" parent="vNeIINF5kTcQfUYiP6Qm-139" vertex="1">
          <mxGeometry width="48" height="22" as="geometry">
            <mxRectangle width="48" height="22" as="alternateBounds" />
          </mxGeometry>
        </mxCell>
        <mxCell id="vNeIINF5kTcQfUYiP6Qm-141" value="numero_registro_imovel" style="shape=partialRectangle;connectable=0;fillColor=none;top=0;left=0;bottom=0;right=0;align=left;spacingLeft=2;overflow=hidden;fontSize=11;" parent="vNeIINF5kTcQfUYiP6Qm-139" vertex="1">
          <mxGeometry x="48" width="138" height="22" as="geometry">
            <mxRectangle width="138" height="22" as="alternateBounds" />
          </mxGeometry>
        </mxCell>
        <mxCell id="vNeIINF5kTcQfUYiP6Qm-142" style="shape=tableRow;horizontal=0;startSize=0;swimlaneHead=0;swimlaneBody=0;fillColor=none;collapsible=0;dropTarget=0;points=[[0,0.5],[1,0.5]];portConstraint=eastwest;top=0;left=0;right=0;bottom=0;" parent="vNeIINF5kTcQfUYiP6Qm-99" vertex="1">
          <mxGeometry y="333" width="186" height="22" as="geometry" />
        </mxCell>
        <mxCell id="vNeIINF5kTcQfUYiP6Qm-143" value="string" style="shape=partialRectangle;connectable=0;fillColor=none;top=0;left=0;bottom=0;right=0;align=left;spacingLeft=2;overflow=hidden;fontSize=11;" parent="vNeIINF5kTcQfUYiP6Qm-142" vertex="1">
          <mxGeometry width="48" height="22" as="geometry">
            <mxRectangle width="48" height="22" as="alternateBounds" />
          </mxGeometry>
        </mxCell>
        <mxCell id="vNeIINF5kTcQfUYiP6Qm-144" value="nirf" style="shape=partialRectangle;connectable=0;fillColor=none;top=0;left=0;bottom=0;right=0;align=left;spacingLeft=2;overflow=hidden;fontSize=11;" parent="vNeIINF5kTcQfUYiP6Qm-142" vertex="1">
          <mxGeometry x="48" width="138" height="22" as="geometry">
            <mxRectangle width="138" height="22" as="alternateBounds" />
          </mxGeometry>
        </mxCell>
        <mxCell id="vNeIINF5kTcQfUYiP6Qm-145" style="shape=tableRow;horizontal=0;startSize=0;swimlaneHead=0;swimlaneBody=0;fillColor=none;collapsible=0;dropTarget=0;points=[[0,0.5],[1,0.5]];portConstraint=eastwest;top=0;left=0;right=0;bottom=0;" parent="vNeIINF5kTcQfUYiP6Qm-99" vertex="1">
          <mxGeometry y="355" width="186" height="22" as="geometry" />
        </mxCell>
        <mxCell id="vNeIINF5kTcQfUYiP6Qm-146" value="string" style="shape=partialRectangle;connectable=0;fillColor=none;top=0;left=0;bottom=0;right=0;align=left;spacingLeft=2;overflow=hidden;fontSize=11;" parent="vNeIINF5kTcQfUYiP6Qm-145" vertex="1">
          <mxGeometry width="48" height="22" as="geometry">
            <mxRectangle width="48" height="22" as="alternateBounds" />
          </mxGeometry>
        </mxCell>
        <mxCell id="vNeIINF5kTcQfUYiP6Qm-147" value="car" style="shape=partialRectangle;connectable=0;fillColor=none;top=0;left=0;bottom=0;right=0;align=left;spacingLeft=2;overflow=hidden;fontSize=11;" parent="vNeIINF5kTcQfUYiP6Qm-145" vertex="1">
          <mxGeometry x="48" width="138" height="22" as="geometry">
            <mxRectangle width="138" height="22" as="alternateBounds" />
          </mxGeometry>
        </mxCell>
        <mxCell id="vNeIINF5kTcQfUYiP6Qm-148" style="shape=tableRow;horizontal=0;startSize=0;swimlaneHead=0;swimlaneBody=0;fillColor=none;collapsible=0;dropTarget=0;points=[[0,0.5],[1,0.5]];portConstraint=eastwest;top=0;left=0;right=0;bottom=0;" parent="vNeIINF5kTcQfUYiP6Qm-99" vertex="1">
          <mxGeometry y="377" width="186" height="22" as="geometry" />
        </mxCell>
        <mxCell id="vNeIINF5kTcQfUYiP6Qm-149" value="string" style="shape=partialRectangle;connectable=0;fillColor=none;top=0;left=0;bottom=0;right=0;align=left;spacingLeft=2;overflow=hidden;fontSize=11;" parent="vNeIINF5kTcQfUYiP6Qm-148" vertex="1">
          <mxGeometry width="48" height="22" as="geometry">
            <mxRectangle width="48" height="22" as="alternateBounds" />
          </mxGeometry>
        </mxCell>
        <mxCell id="vNeIINF5kTcQfUYiP6Qm-150" value="ccir" style="shape=partialRectangle;connectable=0;fillColor=none;top=0;left=0;bottom=0;right=0;align=left;spacingLeft=2;overflow=hidden;fontSize=11;" parent="vNeIINF5kTcQfUYiP6Qm-148" vertex="1">
          <mxGeometry x="48" width="138" height="22" as="geometry">
            <mxRectangle width="138" height="22" as="alternateBounds" />
          </mxGeometry>
        </mxCell>
        <mxCell id="vNeIINF5kTcQfUYiP6Qm-151" style="shape=tableRow;horizontal=0;startSize=0;swimlaneHead=0;swimlaneBody=0;fillColor=none;collapsible=0;dropTarget=0;points=[[0,0.5],[1,0.5]];portConstraint=eastwest;top=0;left=0;right=0;bottom=0;" parent="vNeIINF5kTcQfUYiP6Qm-99" vertex="1">
          <mxGeometry y="399" width="186" height="22" as="geometry" />
        </mxCell>
        <mxCell id="vNeIINF5kTcQfUYiP6Qm-152" value="string" style="shape=partialRectangle;connectable=0;fillColor=none;top=0;left=0;bottom=0;right=0;align=left;spacingLeft=2;overflow=hidden;fontSize=11;" parent="vNeIINF5kTcQfUYiP6Qm-151" vertex="1">
          <mxGeometry width="48" height="22" as="geometry">
            <mxRectangle width="48" height="22" as="alternateBounds" />
          </mxGeometry>
        </mxCell>
        <mxCell id="vNeIINF5kTcQfUYiP6Qm-153" value="numero_instalacao_cemig" style="shape=partialRectangle;connectable=0;fillColor=none;top=0;left=0;bottom=0;right=0;align=left;spacingLeft=2;overflow=hidden;fontSize=11;" parent="vNeIINF5kTcQfUYiP6Qm-151" vertex="1">
          <mxGeometry x="48" width="138" height="22" as="geometry">
            <mxRectangle width="138" height="22" as="alternateBounds" />
          </mxGeometry>
        </mxCell>
        <mxCell id="vNeIINF5kTcQfUYiP6Qm-154" style="shape=tableRow;horizontal=0;startSize=0;swimlaneHead=0;swimlaneBody=0;fillColor=none;collapsible=0;dropTarget=0;points=[[0,0.5],[1,0.5]];portConstraint=eastwest;top=0;left=0;right=0;bottom=0;" parent="vNeIINF5kTcQfUYiP6Qm-99" vertex="1">
          <mxGeometry y="421" width="186" height="22" as="geometry" />
        </mxCell>
        <mxCell id="vNeIINF5kTcQfUYiP6Qm-155" value="float" style="shape=partialRectangle;connectable=0;fillColor=none;top=0;left=0;bottom=0;right=0;align=left;spacingLeft=2;overflow=hidden;fontSize=11;" parent="vNeIINF5kTcQfUYiP6Qm-154" vertex="1">
          <mxGeometry width="48" height="22" as="geometry">
            <mxRectangle width="48" height="22" as="alternateBounds" />
          </mxGeometry>
        </mxCell>
        <mxCell id="vNeIINF5kTcQfUYiP6Qm-156" value="distancia_sede" style="shape=partialRectangle;connectable=0;fillColor=none;top=0;left=0;bottom=0;right=0;align=left;spacingLeft=2;overflow=hidden;fontSize=11;" parent="vNeIINF5kTcQfUYiP6Qm-154" vertex="1">
          <mxGeometry x="48" width="138" height="22" as="geometry">
            <mxRectangle width="138" height="22" as="alternateBounds" />
          </mxGeometry>
        </mxCell>
        <mxCell id="vNeIINF5kTcQfUYiP6Qm-157" style="shape=tableRow;horizontal=0;startSize=0;swimlaneHead=0;swimlaneBody=0;fillColor=none;collapsible=0;dropTarget=0;points=[[0,0.5],[1,0.5]];portConstraint=eastwest;top=0;left=0;right=0;bottom=0;" parent="vNeIINF5kTcQfUYiP6Qm-99" vertex="1">
          <mxGeometry y="443" width="186" height="22" as="geometry" />
        </mxCell>
        <mxCell id="vNeIINF5kTcQfUYiP6Qm-158" value="float" style="shape=partialRectangle;connectable=0;fillColor=none;top=0;left=0;bottom=0;right=0;align=left;spacingLeft=2;overflow=hidden;fontSize=11;" parent="vNeIINF5kTcQfUYiP6Qm-157" vertex="1">
          <mxGeometry width="48" height="22" as="geometry">
            <mxRectangle width="48" height="22" as="alternateBounds" />
          </mxGeometry>
        </mxCell>
        <mxCell id="vNeIINF5kTcQfUYiP6Qm-159" value="tempo_ocupacao_imovel" style="shape=partialRectangle;connectable=0;fillColor=none;top=0;left=0;bottom=0;right=0;align=left;spacingLeft=2;overflow=hidden;fontSize=11;" parent="vNeIINF5kTcQfUYiP6Qm-157" vertex="1">
          <mxGeometry x="48" width="138" height="22" as="geometry">
            <mxRectangle width="138" height="22" as="alternateBounds" />
          </mxGeometry>
        </mxCell>
        <mxCell id="vNeIINF5kTcQfUYiP6Qm-160" style="shape=tableRow;horizontal=0;startSize=0;swimlaneHead=0;swimlaneBody=0;fillColor=none;collapsible=0;dropTarget=0;points=[[0,0.5],[1,0.5]];portConstraint=eastwest;top=0;left=0;right=0;bottom=0;" parent="vNeIINF5kTcQfUYiP6Qm-99" vertex="1">
          <mxGeometry y="465" width="186" height="22" as="geometry" />
        </mxCell>
        <mxCell id="vNeIINF5kTcQfUYiP6Qm-161" value="string" style="shape=partialRectangle;connectable=0;fillColor=none;top=0;left=0;bottom=0;right=0;align=left;spacingLeft=2;overflow=hidden;fontSize=11;" parent="vNeIINF5kTcQfUYiP6Qm-160" vertex="1">
          <mxGeometry width="48" height="22" as="geometry">
            <mxRectangle width="48" height="22" as="alternateBounds" />
          </mxGeometry>
        </mxCell>
        <mxCell id="vNeIINF5kTcQfUYiP6Qm-162" value="id_emater" style="shape=partialRectangle;connectable=0;fillColor=none;top=0;left=0;bottom=0;right=0;align=left;spacingLeft=2;overflow=hidden;fontSize=11;" parent="vNeIINF5kTcQfUYiP6Qm-160" vertex="1">
          <mxGeometry x="48" width="138" height="22" as="geometry">
            <mxRectangle width="138" height="22" as="alternateBounds" />
          </mxGeometry>
        </mxCell>
        <mxCell id="vNeIINF5kTcQfUYiP6Qm-163" style="shape=tableRow;horizontal=0;startSize=0;swimlaneHead=0;swimlaneBody=0;fillColor=none;collapsible=0;dropTarget=0;points=[[0,0.5],[1,0.5]];portConstraint=eastwest;top=0;left=0;right=0;bottom=0;" parent="vNeIINF5kTcQfUYiP6Qm-99" vertex="1">
          <mxGeometry y="487" width="186" height="22" as="geometry" />
        </mxCell>
        <mxCell id="vNeIINF5kTcQfUYiP6Qm-164" value="int" style="shape=partialRectangle;connectable=0;fillColor=none;top=0;left=0;bottom=0;right=0;align=left;spacingLeft=2;overflow=hidden;fontSize=11;" parent="vNeIINF5kTcQfUYiP6Qm-163" vertex="1">
          <mxGeometry width="48" height="22" as="geometry">
            <mxRectangle width="48" height="22" as="alternateBounds" />
          </mxGeometry>
        </mxCell>
        <mxCell id="vNeIINF5kTcQfUYiP6Qm-165" value="id_distrito" style="shape=partialRectangle;connectable=0;fillColor=none;top=0;left=0;bottom=0;right=0;align=left;spacingLeft=2;overflow=hidden;fontSize=11;" parent="vNeIINF5kTcQfUYiP6Qm-163" vertex="1">
          <mxGeometry x="48" width="138" height="22" as="geometry">
            <mxRectangle width="138" height="22" as="alternateBounds" />
          </mxGeometry>
        </mxCell>
        <mxCell id="vNeIINF5kTcQfUYiP6Qm-166" style="shape=tableRow;horizontal=0;startSize=0;swimlaneHead=0;swimlaneBody=0;fillColor=none;collapsible=0;dropTarget=0;points=[[0,0.5],[1,0.5]];portConstraint=eastwest;top=0;left=0;right=0;bottom=0;" parent="vNeIINF5kTcQfUYiP6Qm-99" vertex="1">
          <mxGeometry y="509" width="186" height="22" as="geometry" />
        </mxCell>
        <mxCell id="vNeIINF5kTcQfUYiP6Qm-167" value="int" style="shape=partialRectangle;connectable=0;fillColor=none;top=0;left=0;bottom=0;right=0;align=left;spacingLeft=2;overflow=hidden;fontSize=11;" parent="vNeIINF5kTcQfUYiP6Qm-166" vertex="1">
          <mxGeometry width="48" height="22" as="geometry">
            <mxRectangle width="48" height="22" as="alternateBounds" />
          </mxGeometry>
        </mxCell>
        <mxCell id="vNeIINF5kTcQfUYiP6Qm-168" value="id_municipio" style="shape=partialRectangle;connectable=0;fillColor=none;top=0;left=0;bottom=0;right=0;align=left;spacingLeft=2;overflow=hidden;fontSize=11;" parent="vNeIINF5kTcQfUYiP6Qm-166" vertex="1">
          <mxGeometry x="48" width="138" height="22" as="geometry">
            <mxRectangle width="138" height="22" as="alternateBounds" />
          </mxGeometry>
        </mxCell>
        <mxCell id="vNeIINF5kTcQfUYiP6Qm-169" style="shape=tableRow;horizontal=0;startSize=0;swimlaneHead=0;swimlaneBody=0;fillColor=none;collapsible=0;dropTarget=0;points=[[0,0.5],[1,0.5]];portConstraint=eastwest;top=0;left=0;right=0;bottom=0;" parent="vNeIINF5kTcQfUYiP6Qm-99" vertex="1">
          <mxGeometry y="531" width="186" height="22" as="geometry" />
        </mxCell>
        <mxCell id="vNeIINF5kTcQfUYiP6Qm-170" value="string" style="shape=partialRectangle;connectable=0;fillColor=none;top=0;left=0;bottom=0;right=0;align=left;spacingLeft=2;overflow=hidden;fontSize=11;" parent="vNeIINF5kTcQfUYiP6Qm-169" vertex="1">
          <mxGeometry width="48" height="22" as="geometry">
            <mxRectangle width="48" height="22" as="alternateBounds" />
          </mxGeometry>
        </mxCell>
        <mxCell id="vNeIINF5kTcQfUYiP6Qm-171" value="id_und_empresa" style="shape=partialRectangle;connectable=0;fillColor=none;top=0;left=0;bottom=0;right=0;align=left;spacingLeft=2;overflow=hidden;fontSize=11;" parent="vNeIINF5kTcQfUYiP6Qm-169" vertex="1">
          <mxGeometry x="48" width="138" height="22" as="geometry">
            <mxRectangle width="138" height="22" as="alternateBounds" />
          </mxGeometry>
        </mxCell>
        <mxCell id="vNeIINF5kTcQfUYiP6Qm-172" style="shape=tableRow;horizontal=0;startSize=0;swimlaneHead=0;swimlaneBody=0;fillColor=none;collapsible=0;dropTarget=0;points=[[0,0.5],[1,0.5]];portConstraint=eastwest;top=0;left=0;right=0;bottom=0;" parent="vNeIINF5kTcQfUYiP6Qm-99" vertex="1">
          <mxGeometry y="553" width="186" height="22" as="geometry" />
        </mxCell>
        <mxCell id="vNeIINF5kTcQfUYiP6Qm-173" value="string" style="shape=partialRectangle;connectable=0;fillColor=none;top=0;left=0;bottom=0;right=0;align=left;spacingLeft=2;overflow=hidden;fontSize=11;" parent="vNeIINF5kTcQfUYiP6Qm-172" vertex="1">
          <mxGeometry width="48" height="22" as="geometry">
            <mxRectangle width="48" height="22" as="alternateBounds" />
          </mxGeometry>
        </mxCell>
        <mxCell id="vNeIINF5kTcQfUYiP6Qm-174" value="id_sincronismo" style="shape=partialRectangle;connectable=0;fillColor=none;top=0;left=0;bottom=0;right=0;align=left;spacingLeft=2;overflow=hidden;fontSize=11;" parent="vNeIINF5kTcQfUYiP6Qm-172" vertex="1">
          <mxGeometry x="48" width="138" height="22" as="geometry">
            <mxRectangle width="138" height="22" as="alternateBounds" />
          </mxGeometry>
        </mxCell>
        <mxCell id="vNeIINF5kTcQfUYiP6Qm-175" style="shape=tableRow;horizontal=0;startSize=0;swimlaneHead=0;swimlaneBody=0;fillColor=none;collapsible=0;dropTarget=0;points=[[0,0.5],[1,0.5]];portConstraint=eastwest;top=0;left=0;right=0;bottom=0;" parent="vNeIINF5kTcQfUYiP6Qm-99" vertex="1">
          <mxGeometry y="575" width="186" height="22" as="geometry" />
        </mxCell>
        <mxCell id="vNeIINF5kTcQfUYiP6Qm-176" value="int" style="shape=partialRectangle;connectable=0;fillColor=none;top=0;left=0;bottom=0;right=0;align=left;spacingLeft=2;overflow=hidden;fontSize=11;" parent="vNeIINF5kTcQfUYiP6Qm-175" vertex="1">
          <mxGeometry width="48" height="22" as="geometry">
            <mxRectangle width="48" height="22" as="alternateBounds" />
          </mxGeometry>
        </mxCell>
        <mxCell id="vNeIINF5kTcQfUYiP6Qm-177" value="id_tipo_logradouro" style="shape=partialRectangle;connectable=0;fillColor=none;top=0;left=0;bottom=0;right=0;align=left;spacingLeft=2;overflow=hidden;fontSize=11;" parent="vNeIINF5kTcQfUYiP6Qm-175" vertex="1">
          <mxGeometry x="48" width="138" height="22" as="geometry">
            <mxRectangle width="138" height="22" as="alternateBounds" />
          </mxGeometry>
        </mxCell>
        <mxCell id="vNeIINF5kTcQfUYiP6Qm-178" style="shape=tableRow;horizontal=0;startSize=0;swimlaneHead=0;swimlaneBody=0;fillColor=none;collapsible=0;dropTarget=0;points=[[0,0.5],[1,0.5]];portConstraint=eastwest;top=0;left=0;right=0;bottom=0;" parent="vNeIINF5kTcQfUYiP6Qm-99" vertex="1">
          <mxGeometry y="597" width="186" height="22" as="geometry" />
        </mxCell>
        <mxCell id="vNeIINF5kTcQfUYiP6Qm-179" value="datetime" style="shape=partialRectangle;connectable=0;fillColor=none;top=0;left=0;bottom=0;right=0;align=left;spacingLeft=2;overflow=hidden;fontSize=11;" parent="vNeIINF5kTcQfUYiP6Qm-178" vertex="1">
          <mxGeometry width="48" height="22" as="geometry">
            <mxRectangle width="48" height="22" as="alternateBounds" />
          </mxGeometry>
        </mxCell>
        <mxCell id="vNeIINF5kTcQfUYiP6Qm-180" value="dt_update_record" style="shape=partialRectangle;connectable=0;fillColor=none;top=0;left=0;bottom=0;right=0;align=left;spacingLeft=2;overflow=hidden;fontSize=11;" parent="vNeIINF5kTcQfUYiP6Qm-178" vertex="1">
          <mxGeometry x="48" width="138" height="22" as="geometry">
            <mxRectangle width="138" height="22" as="alternateBounds" />
          </mxGeometry>
        </mxCell>
        <mxCell id="vNeIINF5kTcQfUYiP6Qm-181" style="shape=tableRow;horizontal=0;startSize=0;swimlaneHead=0;swimlaneBody=0;fillColor=none;collapsible=0;dropTarget=0;points=[[0,0.5],[1,0.5]];portConstraint=eastwest;top=0;left=0;right=0;bottom=0;" parent="vNeIINF5kTcQfUYiP6Qm-99" vertex="1">
          <mxGeometry y="619" width="186" height="22" as="geometry" />
        </mxCell>
        <mxCell id="vNeIINF5kTcQfUYiP6Qm-182" value="boolean" style="shape=partialRectangle;connectable=0;fillColor=none;top=0;left=0;bottom=0;right=0;align=left;spacingLeft=2;overflow=hidden;fontSize=11;" parent="vNeIINF5kTcQfUYiP6Qm-181" vertex="1">
          <mxGeometry width="48" height="22" as="geometry">
            <mxRectangle width="48" height="22" as="alternateBounds" />
          </mxGeometry>
        </mxCell>
        <mxCell id="vNeIINF5kTcQfUYiP6Qm-183" value="ativo" style="shape=partialRectangle;connectable=0;fillColor=none;top=0;left=0;bottom=0;right=0;align=left;spacingLeft=2;overflow=hidden;fontSize=11;" parent="vNeIINF5kTcQfUYiP6Qm-181" vertex="1">
          <mxGeometry x="48" width="138" height="22" as="geometry">
            <mxRectangle width="138" height="22" as="alternateBounds" />
          </mxGeometry>
        </mxCell>
        <mxCell id="vNeIINF5kTcQfUYiP6Qm-184" style="shape=tableRow;horizontal=0;startSize=0;swimlaneHead=0;swimlaneBody=0;fillColor=none;collapsible=0;dropTarget=0;points=[[0,0.5],[1,0.5]];portConstraint=eastwest;top=0;left=0;right=0;bottom=0;" parent="vNeIINF5kTcQfUYiP6Qm-99" vertex="1">
          <mxGeometry y="641" width="186" height="22" as="geometry" />
        </mxCell>
        <mxCell id="vNeIINF5kTcQfUYiP6Qm-185" value="string" style="shape=partialRectangle;connectable=0;fillColor=none;top=0;left=0;bottom=0;right=0;align=left;spacingLeft=2;overflow=hidden;fontSize=11;" parent="vNeIINF5kTcQfUYiP6Qm-184" vertex="1">
          <mxGeometry width="48" height="22" as="geometry">
            <mxRectangle width="48" height="22" as="alternateBounds" />
          </mxGeometry>
        </mxCell>
        <mxCell id="vNeIINF5kTcQfUYiP6Qm-186" value="ds_roteiro_acesso" style="shape=partialRectangle;connectable=0;fillColor=none;top=0;left=0;bottom=0;right=0;align=left;spacingLeft=2;overflow=hidden;fontSize=11;" parent="vNeIINF5kTcQfUYiP6Qm-184" vertex="1">
          <mxGeometry x="48" width="138" height="22" as="geometry">
            <mxRectangle width="138" height="22" as="alternateBounds" />
          </mxGeometry>
        </mxCell>
        <mxCell id="vNeIINF5kTcQfUYiP6Qm-187" style="shape=tableRow;horizontal=0;startSize=0;swimlaneHead=0;swimlaneBody=0;fillColor=none;collapsible=0;dropTarget=0;points=[[0,0.5],[1,0.5]];portConstraint=eastwest;top=0;left=0;right=0;bottom=0;" parent="vNeIINF5kTcQfUYiP6Qm-99" vertex="1">
          <mxGeometry y="663" width="186" height="22" as="geometry" />
        </mxCell>
        <mxCell id="vNeIINF5kTcQfUYiP6Qm-188" value="int" style="shape=partialRectangle;connectable=0;fillColor=none;top=0;left=0;bottom=0;right=0;align=left;spacingLeft=2;overflow=hidden;fontSize=11;" parent="vNeIINF5kTcQfUYiP6Qm-187" vertex="1">
          <mxGeometry width="48" height="22" as="geometry">
            <mxRectangle width="48" height="22" as="alternateBounds" />
          </mxGeometry>
        </mxCell>
        <mxCell id="vNeIINF5kTcQfUYiP6Qm-189" value="sn_ctd" style="shape=partialRectangle;connectable=0;fillColor=none;top=0;left=0;bottom=0;right=0;align=left;spacingLeft=2;overflow=hidden;fontSize=11;" parent="vNeIINF5kTcQfUYiP6Qm-187" vertex="1">
          <mxGeometry x="48" width="138" height="22" as="geometry">
            <mxRectangle width="138" height="22" as="alternateBounds" />
          </mxGeometry>
        </mxCell>
        <mxCell id="NaU0uIvpFBSCK1g3RZCS-1" style="edgeStyle=orthogonalEdgeStyle;rounded=0;orthogonalLoop=1;jettySize=auto;html=1;entryX=0;entryY=0.5;entryDx=0;entryDy=0;fontSize=12;endArrow=ERzeroToMany;startArrow=ERmandOne;exitX=1.009;exitY=0.026;exitDx=0;exitDy=0;exitPerimeter=0;" edge="1" parent="1" source="vNeIINF5kTcQfUYiP6Qm-1" target="vNeIINF5kTcQfUYiP6Qm-191">
          <mxGeometry relative="1" as="geometry">
            <mxPoint x="250" y="80" as="sourcePoint" />
            <Array as="points">
              <mxPoint x="260" y="80" />
            </Array>
          </mxGeometry>
        </mxCell>
        <mxCell id="vNeIINF5kTcQfUYiP6Qm-190" value="Perfil" style="shape=table;startSize=25;container=1;collapsible=0;childLayout=tableLayout;fixedRows=1;rowLines=1;fontStyle=1;align=center;resizeLast=1;fillColor=#dae8fc;strokeColor=#6c8ebf;fontColor=#000000;" parent="1" vertex="1">
          <mxGeometry x="629" y="44" width="312" height="729" as="geometry" />
        </mxCell>
        <mxCell id="vNeIINF5kTcQfUYiP6Qm-191" style="shape=tableRow;horizontal=0;startSize=0;swimlaneHead=0;swimlaneBody=0;fillColor=none;collapsible=0;dropTarget=0;points=[[0,0.5],[1,0.5]];portConstraint=eastwest;top=0;left=0;right=0;bottom=0;" parent="vNeIINF5kTcQfUYiP6Qm-190" vertex="1">
          <mxGeometry y="25" width="312" height="22" as="geometry" />
        </mxCell>
        <mxCell id="vNeIINF5kTcQfUYiP6Qm-192" value="string" style="shape=partialRectangle;connectable=0;fillColor=none;top=0;left=0;bottom=0;right=0;align=left;spacingLeft=2;overflow=hidden;fontSize=11;" parent="vNeIINF5kTcQfUYiP6Qm-191" vertex="1">
          <mxGeometry width="48" height="22" as="geometry">
            <mxRectangle width="48" height="22" as="alternateBounds" />
          </mxGeometry>
        </mxCell>
        <mxCell id="vNeIINF5kTcQfUYiP6Qm-193" value="id" style="shape=partialRectangle;connectable=0;fillColor=none;top=0;left=0;bottom=0;right=0;align=left;spacingLeft=2;overflow=hidden;fontSize=11;" parent="vNeIINF5kTcQfUYiP6Qm-191" vertex="1">
          <mxGeometry x="48" width="264" height="22" as="geometry">
            <mxRectangle width="264" height="22" as="alternateBounds" />
          </mxGeometry>
        </mxCell>
        <mxCell id="vNeIINF5kTcQfUYiP6Qm-194" style="shape=tableRow;horizontal=0;startSize=0;swimlaneHead=0;swimlaneBody=0;fillColor=none;collapsible=0;dropTarget=0;points=[[0,0.5],[1,0.5]];portConstraint=eastwest;top=0;left=0;right=0;bottom=0;" parent="vNeIINF5kTcQfUYiP6Qm-190" vertex="1">
          <mxGeometry y="47" width="312" height="22" as="geometry" />
        </mxCell>
        <mxCell id="vNeIINF5kTcQfUYiP6Qm-195" value="string" style="shape=partialRectangle;connectable=0;fillColor=none;top=0;left=0;bottom=0;right=0;align=left;spacingLeft=2;overflow=hidden;fontSize=11;" parent="vNeIINF5kTcQfUYiP6Qm-194" vertex="1">
          <mxGeometry width="48" height="22" as="geometry">
            <mxRectangle width="48" height="22" as="alternateBounds" />
          </mxGeometry>
        </mxCell>
        <mxCell id="vNeIINF5kTcQfUYiP6Qm-196" value="tipo_perfil" style="shape=partialRectangle;connectable=0;fillColor=none;top=0;left=0;bottom=0;right=0;align=left;spacingLeft=2;overflow=hidden;fontSize=11;" parent="vNeIINF5kTcQfUYiP6Qm-194" vertex="1">
          <mxGeometry x="48" width="264" height="22" as="geometry">
            <mxRectangle width="264" height="22" as="alternateBounds" />
          </mxGeometry>
        </mxCell>
        <mxCell id="vNeIINF5kTcQfUYiP6Qm-197" style="shape=tableRow;horizontal=0;startSize=0;swimlaneHead=0;swimlaneBody=0;fillColor=none;collapsible=0;dropTarget=0;points=[[0,0.5],[1,0.5]];portConstraint=eastwest;top=0;left=0;right=0;bottom=0;" parent="vNeIINF5kTcQfUYiP6Qm-190" vertex="1">
          <mxGeometry y="69" width="312" height="22" as="geometry" />
        </mxCell>
        <mxCell id="vNeIINF5kTcQfUYiP6Qm-198" value="string" style="shape=partialRectangle;connectable=0;fillColor=none;top=0;left=0;bottom=0;right=0;align=left;spacingLeft=2;overflow=hidden;fontSize=11;" parent="vNeIINF5kTcQfUYiP6Qm-197" vertex="1">
          <mxGeometry width="48" height="22" as="geometry">
            <mxRectangle width="48" height="22" as="alternateBounds" />
          </mxGeometry>
        </mxCell>
        <mxCell id="vNeIINF5kTcQfUYiP6Qm-199" value="id_tecnico" style="shape=partialRectangle;connectable=0;fillColor=none;top=0;left=0;bottom=0;right=0;align=left;spacingLeft=2;overflow=hidden;fontSize=11;" parent="vNeIINF5kTcQfUYiP6Qm-197" vertex="1">
          <mxGeometry x="48" width="264" height="22" as="geometry">
            <mxRectangle width="264" height="22" as="alternateBounds" />
          </mxGeometry>
        </mxCell>
        <mxCell id="vNeIINF5kTcQfUYiP6Qm-200" style="shape=tableRow;horizontal=0;startSize=0;swimlaneHead=0;swimlaneBody=0;fillColor=none;collapsible=0;dropTarget=0;points=[[0,0.5],[1,0.5]];portConstraint=eastwest;top=0;left=0;right=0;bottom=0;" parent="vNeIINF5kTcQfUYiP6Qm-190" vertex="1">
          <mxGeometry y="91" width="312" height="22" as="geometry" />
        </mxCell>
        <mxCell id="vNeIINF5kTcQfUYiP6Qm-201" value="string" style="shape=partialRectangle;connectable=0;fillColor=none;top=0;left=0;bottom=0;right=0;align=left;spacingLeft=2;overflow=hidden;fontSize=11;" parent="vNeIINF5kTcQfUYiP6Qm-200" vertex="1">
          <mxGeometry width="48" height="22" as="geometry">
            <mxRectangle width="48" height="22" as="alternateBounds" />
          </mxGeometry>
        </mxCell>
        <mxCell id="vNeIINF5kTcQfUYiP6Qm-202" value="id_cliente" style="shape=partialRectangle;connectable=0;fillColor=none;top=0;left=0;bottom=0;right=0;align=left;spacingLeft=2;overflow=hidden;fontSize=11;" parent="vNeIINF5kTcQfUYiP6Qm-200" vertex="1">
          <mxGeometry x="48" width="264" height="22" as="geometry">
            <mxRectangle width="264" height="22" as="alternateBounds" />
          </mxGeometry>
        </mxCell>
        <mxCell id="vNeIINF5kTcQfUYiP6Qm-203" style="shape=tableRow;horizontal=0;startSize=0;swimlaneHead=0;swimlaneBody=0;fillColor=none;collapsible=0;dropTarget=0;points=[[0,0.5],[1,0.5]];portConstraint=eastwest;top=0;left=0;right=0;bottom=0;" parent="vNeIINF5kTcQfUYiP6Qm-190" vertex="1">
          <mxGeometry y="113" width="312" height="22" as="geometry" />
        </mxCell>
        <mxCell id="vNeIINF5kTcQfUYiP6Qm-204" value="datetime" style="shape=partialRectangle;connectable=0;fillColor=none;top=0;left=0;bottom=0;right=0;align=left;spacingLeft=2;overflow=hidden;fontSize=11;" parent="vNeIINF5kTcQfUYiP6Qm-203" vertex="1">
          <mxGeometry width="48" height="22" as="geometry">
            <mxRectangle width="48" height="22" as="alternateBounds" />
          </mxGeometry>
        </mxCell>
        <mxCell id="vNeIINF5kTcQfUYiP6Qm-205" value="data_preenchimento" style="shape=partialRectangle;connectable=0;fillColor=none;top=0;left=0;bottom=0;right=0;align=left;spacingLeft=2;overflow=hidden;fontSize=11;" parent="vNeIINF5kTcQfUYiP6Qm-203" vertex="1">
          <mxGeometry x="48" width="264" height="22" as="geometry">
            <mxRectangle width="264" height="22" as="alternateBounds" />
          </mxGeometry>
        </mxCell>
        <mxCell id="vNeIINF5kTcQfUYiP6Qm-206" style="shape=tableRow;horizontal=0;startSize=0;swimlaneHead=0;swimlaneBody=0;fillColor=none;collapsible=0;dropTarget=0;points=[[0,0.5],[1,0.5]];portConstraint=eastwest;top=0;left=0;right=0;bottom=0;" parent="vNeIINF5kTcQfUYiP6Qm-190" vertex="1">
          <mxGeometry y="135" width="312" height="22" as="geometry" />
        </mxCell>
        <mxCell id="vNeIINF5kTcQfUYiP6Qm-207" value="datetime" style="shape=partialRectangle;connectable=0;fillColor=none;top=0;left=0;bottom=0;right=0;align=left;spacingLeft=2;overflow=hidden;fontSize=11;" parent="vNeIINF5kTcQfUYiP6Qm-206" vertex="1">
          <mxGeometry width="48" height="22" as="geometry">
            <mxRectangle width="48" height="22" as="alternateBounds" />
          </mxGeometry>
        </mxCell>
        <mxCell id="vNeIINF5kTcQfUYiP6Qm-208" value="data_atualizacao" style="shape=partialRectangle;connectable=0;fillColor=none;top=0;left=0;bottom=0;right=0;align=left;spacingLeft=2;overflow=hidden;fontSize=11;" parent="vNeIINF5kTcQfUYiP6Qm-206" vertex="1">
          <mxGeometry x="48" width="264" height="22" as="geometry">
            <mxRectangle width="264" height="22" as="alternateBounds" />
          </mxGeometry>
        </mxCell>
        <mxCell id="vNeIINF5kTcQfUYiP6Qm-209" style="shape=tableRow;horizontal=0;startSize=0;swimlaneHead=0;swimlaneBody=0;fillColor=none;collapsible=0;dropTarget=0;points=[[0,0.5],[1,0.5]];portConstraint=eastwest;top=0;left=0;right=0;bottom=0;" parent="vNeIINF5kTcQfUYiP6Qm-190" vertex="1">
          <mxGeometry y="157" width="312" height="22" as="geometry" />
        </mxCell>
        <mxCell id="vNeIINF5kTcQfUYiP6Qm-210" value="boolean" style="shape=partialRectangle;connectable=0;fillColor=none;top=0;left=0;bottom=0;right=0;align=left;spacingLeft=2;overflow=hidden;fontSize=11;" parent="vNeIINF5kTcQfUYiP6Qm-209" vertex="1">
          <mxGeometry width="48" height="22" as="geometry">
            <mxRectangle width="48" height="22" as="alternateBounds" />
          </mxGeometry>
        </mxCell>
        <mxCell id="vNeIINF5kTcQfUYiP6Qm-211" value="participa_organizacao" style="shape=partialRectangle;connectable=0;fillColor=none;top=0;left=0;bottom=0;right=0;align=left;spacingLeft=2;overflow=hidden;fontSize=11;" parent="vNeIINF5kTcQfUYiP6Qm-209" vertex="1">
          <mxGeometry x="48" width="264" height="22" as="geometry">
            <mxRectangle width="264" height="22" as="alternateBounds" />
          </mxGeometry>
        </mxCell>
        <mxCell id="vNeIINF5kTcQfUYiP6Qm-212" style="shape=tableRow;horizontal=0;startSize=0;swimlaneHead=0;swimlaneBody=0;fillColor=none;collapsible=0;dropTarget=0;points=[[0,0.5],[1,0.5]];portConstraint=eastwest;top=0;left=0;right=0;bottom=0;" parent="vNeIINF5kTcQfUYiP6Qm-190" vertex="1">
          <mxGeometry y="179" width="312" height="22" as="geometry" />
        </mxCell>
        <mxCell id="vNeIINF5kTcQfUYiP6Qm-213" value="string" style="shape=partialRectangle;connectable=0;fillColor=none;top=0;left=0;bottom=0;right=0;align=left;spacingLeft=2;overflow=hidden;fontSize=11;" parent="vNeIINF5kTcQfUYiP6Qm-212" vertex="1">
          <mxGeometry width="48" height="22" as="geometry">
            <mxRectangle width="48" height="22" as="alternateBounds" />
          </mxGeometry>
        </mxCell>
        <mxCell id="vNeIINF5kTcQfUYiP6Qm-214" value="grau_interesse_pnae" style="shape=partialRectangle;connectable=0;fillColor=none;top=0;left=0;bottom=0;right=0;align=left;spacingLeft=2;overflow=hidden;fontSize=11;" parent="vNeIINF5kTcQfUYiP6Qm-212" vertex="1">
          <mxGeometry x="48" width="264" height="22" as="geometry">
            <mxRectangle width="264" height="22" as="alternateBounds" />
          </mxGeometry>
        </mxCell>
        <mxCell id="vNeIINF5kTcQfUYiP6Qm-215" style="shape=tableRow;horizontal=0;startSize=0;swimlaneHead=0;swimlaneBody=0;fillColor=none;collapsible=0;dropTarget=0;points=[[0,0.5],[1,0.5]];portConstraint=eastwest;top=0;left=0;right=0;bottom=0;" parent="vNeIINF5kTcQfUYiP6Qm-190" vertex="1">
          <mxGeometry y="201" width="312" height="22" as="geometry" />
        </mxCell>
        <mxCell id="vNeIINF5kTcQfUYiP6Qm-216" value="string" style="shape=partialRectangle;connectable=0;fillColor=none;top=0;left=0;bottom=0;right=0;align=left;spacingLeft=2;overflow=hidden;fontSize=11;" parent="vNeIINF5kTcQfUYiP6Qm-215" vertex="1">
          <mxGeometry width="48" height="22" as="geometry">
            <mxRectangle width="48" height="22" as="alternateBounds" />
          </mxGeometry>
        </mxCell>
        <mxCell id="vNeIINF5kTcQfUYiP6Qm-217" value="nivel_tecnologico_cultivo" style="shape=partialRectangle;connectable=0;fillColor=none;top=0;left=0;bottom=0;right=0;align=left;spacingLeft=2;overflow=hidden;fontSize=11;" parent="vNeIINF5kTcQfUYiP6Qm-215" vertex="1">
          <mxGeometry x="48" width="264" height="22" as="geometry">
            <mxRectangle width="264" height="22" as="alternateBounds" />
          </mxGeometry>
        </mxCell>
        <mxCell id="vNeIINF5kTcQfUYiP6Qm-218" style="shape=tableRow;horizontal=0;startSize=0;swimlaneHead=0;swimlaneBody=0;fillColor=none;collapsible=0;dropTarget=0;points=[[0,0.5],[1,0.5]];portConstraint=eastwest;top=0;left=0;right=0;bottom=0;" parent="vNeIINF5kTcQfUYiP6Qm-190" vertex="1">
          <mxGeometry y="223" width="312" height="22" as="geometry" />
        </mxCell>
        <mxCell id="vNeIINF5kTcQfUYiP6Qm-219" value="string" style="shape=partialRectangle;connectable=0;fillColor=none;top=0;left=0;bottom=0;right=0;align=left;spacingLeft=2;overflow=hidden;fontSize=11;" parent="vNeIINF5kTcQfUYiP6Qm-218" vertex="1">
          <mxGeometry width="48" height="22" as="geometry">
            <mxRectangle width="48" height="22" as="alternateBounds" />
          </mxGeometry>
        </mxCell>
        <mxCell id="vNeIINF5kTcQfUYiP6Qm-220" value="sistema_producao" style="shape=partialRectangle;connectable=0;fillColor=none;top=0;left=0;bottom=0;right=0;align=left;spacingLeft=2;overflow=hidden;fontSize=11;" parent="vNeIINF5kTcQfUYiP6Qm-218" vertex="1">
          <mxGeometry x="48" width="264" height="22" as="geometry">
            <mxRectangle width="264" height="22" as="alternateBounds" />
          </mxGeometry>
        </mxCell>
        <mxCell id="vNeIINF5kTcQfUYiP6Qm-221" style="shape=tableRow;horizontal=0;startSize=0;swimlaneHead=0;swimlaneBody=0;fillColor=none;collapsible=0;dropTarget=0;points=[[0,0.5],[1,0.5]];portConstraint=eastwest;top=0;left=0;right=0;bottom=0;" parent="vNeIINF5kTcQfUYiP6Qm-190" vertex="1">
          <mxGeometry y="245" width="312" height="22" as="geometry" />
        </mxCell>
        <mxCell id="vNeIINF5kTcQfUYiP6Qm-222" value="string" style="shape=partialRectangle;connectable=0;fillColor=none;top=0;left=0;bottom=0;right=0;align=left;spacingLeft=2;overflow=hidden;fontSize=11;" parent="vNeIINF5kTcQfUYiP6Qm-221" vertex="1">
          <mxGeometry width="48" height="22" as="geometry">
            <mxRectangle width="48" height="22" as="alternateBounds" />
          </mxGeometry>
        </mxCell>
        <mxCell id="vNeIINF5kTcQfUYiP6Qm-223" value="condicao_posse" style="shape=partialRectangle;connectable=0;fillColor=none;top=0;left=0;bottom=0;right=0;align=left;spacingLeft=2;overflow=hidden;fontSize=11;" parent="vNeIINF5kTcQfUYiP6Qm-221" vertex="1">
          <mxGeometry x="48" width="264" height="22" as="geometry">
            <mxRectangle width="264" height="22" as="alternateBounds" />
          </mxGeometry>
        </mxCell>
        <mxCell id="vNeIINF5kTcQfUYiP6Qm-224" style="shape=tableRow;horizontal=0;startSize=0;swimlaneHead=0;swimlaneBody=0;fillColor=none;collapsible=0;dropTarget=0;points=[[0,0.5],[1,0.5]];portConstraint=eastwest;top=0;left=0;right=0;bottom=0;" parent="vNeIINF5kTcQfUYiP6Qm-190" vertex="1">
          <mxGeometry y="267" width="312" height="22" as="geometry" />
        </mxCell>
        <mxCell id="vNeIINF5kTcQfUYiP6Qm-225" value="boolean" style="shape=partialRectangle;connectable=0;fillColor=none;top=0;left=0;bottom=0;right=0;align=left;spacingLeft=2;overflow=hidden;fontSize=11;" parent="vNeIINF5kTcQfUYiP6Qm-224" vertex="1">
          <mxGeometry width="48" height="22" as="geometry">
            <mxRectangle width="48" height="22" as="alternateBounds" />
          </mxGeometry>
        </mxCell>
        <mxCell id="vNeIINF5kTcQfUYiP6Qm-226" value="dap_caf_vigente" style="shape=partialRectangle;connectable=0;fillColor=none;top=0;left=0;bottom=0;right=0;align=left;spacingLeft=2;overflow=hidden;fontSize=11;" parent="vNeIINF5kTcQfUYiP6Qm-224" vertex="1">
          <mxGeometry x="48" width="264" height="22" as="geometry">
            <mxRectangle width="264" height="22" as="alternateBounds" />
          </mxGeometry>
        </mxCell>
        <mxCell id="vNeIINF5kTcQfUYiP6Qm-227" style="shape=tableRow;horizontal=0;startSize=0;swimlaneHead=0;swimlaneBody=0;fillColor=none;collapsible=0;dropTarget=0;points=[[0,0.5],[1,0.5]];portConstraint=eastwest;top=0;left=0;right=0;bottom=0;" parent="vNeIINF5kTcQfUYiP6Qm-190" vertex="1">
          <mxGeometry y="289" width="312" height="22" as="geometry" />
        </mxCell>
        <mxCell id="vNeIINF5kTcQfUYiP6Qm-228" value="boolean" style="shape=partialRectangle;connectable=0;fillColor=none;top=0;left=0;bottom=0;right=0;align=left;spacingLeft=2;overflow=hidden;fontSize=11;" parent="vNeIINF5kTcQfUYiP6Qm-227" vertex="1">
          <mxGeometry width="48" height="22" as="geometry">
            <mxRectangle width="48" height="22" as="alternateBounds" />
          </mxGeometry>
        </mxCell>
        <mxCell id="vNeIINF5kTcQfUYiP6Qm-229" value="credito_rural" style="shape=partialRectangle;connectable=0;fillColor=none;top=0;left=0;bottom=0;right=0;align=left;spacingLeft=2;overflow=hidden;fontSize=11;" parent="vNeIINF5kTcQfUYiP6Qm-227" vertex="1">
          <mxGeometry x="48" width="264" height="22" as="geometry">
            <mxRectangle width="264" height="22" as="alternateBounds" />
          </mxGeometry>
        </mxCell>
        <mxCell id="vNeIINF5kTcQfUYiP6Qm-230" style="shape=tableRow;horizontal=0;startSize=0;swimlaneHead=0;swimlaneBody=0;fillColor=none;collapsible=0;dropTarget=0;points=[[0,0.5],[1,0.5]];portConstraint=eastwest;top=0;left=0;right=0;bottom=0;" parent="vNeIINF5kTcQfUYiP6Qm-190" vertex="1">
          <mxGeometry y="311" width="312" height="22" as="geometry" />
        </mxCell>
        <mxCell id="vNeIINF5kTcQfUYiP6Qm-231" value="string" style="shape=partialRectangle;connectable=0;fillColor=none;top=0;left=0;bottom=0;right=0;align=left;spacingLeft=2;overflow=hidden;fontSize=11;" parent="vNeIINF5kTcQfUYiP6Qm-230" vertex="1">
          <mxGeometry width="48" height="22" as="geometry">
            <mxRectangle width="48" height="22" as="alternateBounds" />
          </mxGeometry>
        </mxCell>
        <mxCell id="vNeIINF5kTcQfUYiP6Qm-232" value="fonte_captacao_agua" style="shape=partialRectangle;connectable=0;fillColor=none;top=0;left=0;bottom=0;right=0;align=left;spacingLeft=2;overflow=hidden;fontSize=11;" parent="vNeIINF5kTcQfUYiP6Qm-230" vertex="1">
          <mxGeometry x="48" width="264" height="22" as="geometry">
            <mxRectangle width="264" height="22" as="alternateBounds" />
          </mxGeometry>
        </mxCell>
        <mxCell id="vNeIINF5kTcQfUYiP6Qm-233" style="shape=tableRow;horizontal=0;startSize=0;swimlaneHead=0;swimlaneBody=0;fillColor=none;collapsible=0;dropTarget=0;points=[[0,0.5],[1,0.5]];portConstraint=eastwest;top=0;left=0;right=0;bottom=0;" parent="vNeIINF5kTcQfUYiP6Qm-190" vertex="1">
          <mxGeometry y="333" width="312" height="22" as="geometry" />
        </mxCell>
        <mxCell id="vNeIINF5kTcQfUYiP6Qm-234" value="string" style="shape=partialRectangle;connectable=0;fillColor=none;top=0;left=0;bottom=0;right=0;align=left;spacingLeft=2;overflow=hidden;fontSize=11;" parent="vNeIINF5kTcQfUYiP6Qm-233" vertex="1">
          <mxGeometry width="48" height="22" as="geometry">
            <mxRectangle width="48" height="22" as="alternateBounds" />
          </mxGeometry>
        </mxCell>
        <mxCell id="vNeIINF5kTcQfUYiP6Qm-235" value="forma_esgotamento_sanitario" style="shape=partialRectangle;connectable=0;fillColor=none;top=0;left=0;bottom=0;right=0;align=left;spacingLeft=2;overflow=hidden;fontSize=11;" parent="vNeIINF5kTcQfUYiP6Qm-233" vertex="1">
          <mxGeometry x="48" width="264" height="22" as="geometry">
            <mxRectangle width="264" height="22" as="alternateBounds" />
          </mxGeometry>
        </mxCell>
        <mxCell id="vNeIINF5kTcQfUYiP6Qm-236" style="shape=tableRow;horizontal=0;startSize=0;swimlaneHead=0;swimlaneBody=0;fillColor=none;collapsible=0;dropTarget=0;points=[[0,0.5],[1,0.5]];portConstraint=eastwest;top=0;left=0;right=0;bottom=0;" parent="vNeIINF5kTcQfUYiP6Qm-190" vertex="1">
          <mxGeometry y="355" width="312" height="22" as="geometry" />
        </mxCell>
        <mxCell id="vNeIINF5kTcQfUYiP6Qm-237" value="string" style="shape=partialRectangle;connectable=0;fillColor=none;top=0;left=0;bottom=0;right=0;align=left;spacingLeft=2;overflow=hidden;fontSize=11;" parent="vNeIINF5kTcQfUYiP6Qm-236" vertex="1">
          <mxGeometry width="48" height="22" as="geometry">
            <mxRectangle width="48" height="22" as="alternateBounds" />
          </mxGeometry>
        </mxCell>
        <mxCell id="vNeIINF5kTcQfUYiP6Qm-238" value="atividades_usam_recursos_hidricos" style="shape=partialRectangle;connectable=0;fillColor=none;top=0;left=0;bottom=0;right=0;align=left;spacingLeft=2;overflow=hidden;fontSize=11;" parent="vNeIINF5kTcQfUYiP6Qm-236" vertex="1">
          <mxGeometry x="48" width="264" height="22" as="geometry">
            <mxRectangle width="264" height="22" as="alternateBounds" />
          </mxGeometry>
        </mxCell>
        <mxCell id="vNeIINF5kTcQfUYiP6Qm-239" style="shape=tableRow;horizontal=0;startSize=0;swimlaneHead=0;swimlaneBody=0;fillColor=none;collapsible=0;dropTarget=0;points=[[0,0.5],[1,0.5]];portConstraint=eastwest;top=0;left=0;right=0;bottom=0;" parent="vNeIINF5kTcQfUYiP6Qm-190" vertex="1">
          <mxGeometry y="377" width="312" height="22" as="geometry" />
        </mxCell>
        <mxCell id="vNeIINF5kTcQfUYiP6Qm-240" value="string" style="shape=partialRectangle;connectable=0;fillColor=none;top=0;left=0;bottom=0;right=0;align=left;spacingLeft=2;overflow=hidden;fontSize=11;" parent="vNeIINF5kTcQfUYiP6Qm-239" vertex="1">
          <mxGeometry width="48" height="22" as="geometry">
            <mxRectangle width="48" height="22" as="alternateBounds" />
          </mxGeometry>
        </mxCell>
        <mxCell id="vNeIINF5kTcQfUYiP6Qm-241" value="atividades_com_regularizacao_ambiental" style="shape=partialRectangle;connectable=0;fillColor=none;top=0;left=0;bottom=0;right=0;align=left;spacingLeft=2;overflow=hidden;fontSize=11;" parent="vNeIINF5kTcQfUYiP6Qm-239" vertex="1">
          <mxGeometry x="48" width="264" height="22" as="geometry">
            <mxRectangle width="264" height="22" as="alternateBounds" />
          </mxGeometry>
        </mxCell>
        <mxCell id="vNeIINF5kTcQfUYiP6Qm-242" style="shape=tableRow;horizontal=0;startSize=0;swimlaneHead=0;swimlaneBody=0;fillColor=none;collapsible=0;dropTarget=0;points=[[0,0.5],[1,0.5]];portConstraint=eastwest;top=0;left=0;right=0;bottom=0;" parent="vNeIINF5kTcQfUYiP6Qm-190" vertex="1">
          <mxGeometry y="399" width="312" height="22" as="geometry" />
        </mxCell>
        <mxCell id="vNeIINF5kTcQfUYiP6Qm-243" value="boolean" style="shape=partialRectangle;connectable=0;fillColor=none;top=0;left=0;bottom=0;right=0;align=left;spacingLeft=2;overflow=hidden;fontSize=11;" parent="vNeIINF5kTcQfUYiP6Qm-242" vertex="1">
          <mxGeometry width="48" height="22" as="geometry">
            <mxRectangle width="48" height="22" as="alternateBounds" />
          </mxGeometry>
        </mxCell>
        <mxCell id="vNeIINF5kTcQfUYiP6Qm-244" value="possui_cadastro_car" style="shape=partialRectangle;connectable=0;fillColor=none;top=0;left=0;bottom=0;right=0;align=left;spacingLeft=2;overflow=hidden;fontSize=11;" parent="vNeIINF5kTcQfUYiP6Qm-242" vertex="1">
          <mxGeometry x="48" width="264" height="22" as="geometry">
            <mxRectangle width="264" height="22" as="alternateBounds" />
          </mxGeometry>
        </mxCell>
        <mxCell id="vNeIINF5kTcQfUYiP6Qm-245" style="shape=tableRow;horizontal=0;startSize=0;swimlaneHead=0;swimlaneBody=0;fillColor=none;collapsible=0;dropTarget=0;points=[[0,0.5],[1,0.5]];portConstraint=eastwest;top=0;left=0;right=0;bottom=0;" parent="vNeIINF5kTcQfUYiP6Qm-190" vertex="1">
          <mxGeometry y="421" width="312" height="22" as="geometry" />
        </mxCell>
        <mxCell id="vNeIINF5kTcQfUYiP6Qm-246" value="boolean" style="shape=partialRectangle;connectable=0;fillColor=none;top=0;left=0;bottom=0;right=0;align=left;spacingLeft=2;overflow=hidden;fontSize=11;" parent="vNeIINF5kTcQfUYiP6Qm-245" vertex="1">
          <mxGeometry width="48" height="22" as="geometry">
            <mxRectangle width="48" height="22" as="alternateBounds" />
          </mxGeometry>
        </mxCell>
        <mxCell id="vNeIINF5kTcQfUYiP6Qm-247" value="aderiu_pra" style="shape=partialRectangle;connectable=0;fillColor=none;top=0;left=0;bottom=0;right=0;align=left;spacingLeft=2;overflow=hidden;fontSize=11;" parent="vNeIINF5kTcQfUYiP6Qm-245" vertex="1">
          <mxGeometry x="48" width="264" height="22" as="geometry">
            <mxRectangle width="264" height="22" as="alternateBounds" />
          </mxGeometry>
        </mxCell>
        <mxCell id="vNeIINF5kTcQfUYiP6Qm-248" style="shape=tableRow;horizontal=0;startSize=0;swimlaneHead=0;swimlaneBody=0;fillColor=none;collapsible=0;dropTarget=0;points=[[0,0.5],[1,0.5]];portConstraint=eastwest;top=0;left=0;right=0;bottom=0;" parent="vNeIINF5kTcQfUYiP6Qm-190" vertex="1">
          <mxGeometry y="443" width="312" height="22" as="geometry" />
        </mxCell>
        <mxCell id="vNeIINF5kTcQfUYiP6Qm-249" value="string" style="shape=partialRectangle;connectable=0;fillColor=none;top=0;left=0;bottom=0;right=0;align=left;spacingLeft=2;overflow=hidden;fontSize=11;" parent="vNeIINF5kTcQfUYiP6Qm-248" vertex="1">
          <mxGeometry width="48" height="22" as="geometry">
            <mxRectangle width="48" height="22" as="alternateBounds" />
          </mxGeometry>
        </mxCell>
        <mxCell id="vNeIINF5kTcQfUYiP6Qm-250" value="id_dados_producao_in_natura" style="shape=partialRectangle;connectable=0;fillColor=none;top=0;left=0;bottom=0;right=0;align=left;spacingLeft=2;overflow=hidden;fontSize=11;" parent="vNeIINF5kTcQfUYiP6Qm-248" vertex="1">
          <mxGeometry x="48" width="264" height="22" as="geometry">
            <mxRectangle width="264" height="22" as="alternateBounds" />
          </mxGeometry>
        </mxCell>
        <mxCell id="vNeIINF5kTcQfUYiP6Qm-251" style="shape=tableRow;horizontal=0;startSize=0;swimlaneHead=0;swimlaneBody=0;fillColor=none;collapsible=0;dropTarget=0;points=[[0,0.5],[1,0.5]];portConstraint=eastwest;top=0;left=0;right=0;bottom=0;" parent="vNeIINF5kTcQfUYiP6Qm-190" vertex="1">
          <mxGeometry y="465" width="312" height="22" as="geometry" />
        </mxCell>
        <mxCell id="vNeIINF5kTcQfUYiP6Qm-252" value="boolean" style="shape=partialRectangle;connectable=0;fillColor=none;top=0;left=0;bottom=0;right=0;align=left;spacingLeft=2;overflow=hidden;fontSize=11;" parent="vNeIINF5kTcQfUYiP6Qm-251" vertex="1">
          <mxGeometry width="48" height="22" as="geometry">
            <mxRectangle width="48" height="22" as="alternateBounds" />
          </mxGeometry>
        </mxCell>
        <mxCell id="vNeIINF5kTcQfUYiP6Qm-253" value="ciente_iniciativas_regularizacao_pra" style="shape=partialRectangle;connectable=0;fillColor=none;top=0;left=0;bottom=0;right=0;align=left;spacingLeft=2;overflow=hidden;fontSize=11;" parent="vNeIINF5kTcQfUYiP6Qm-251" vertex="1">
          <mxGeometry x="48" width="264" height="22" as="geometry">
            <mxRectangle width="264" height="22" as="alternateBounds" />
          </mxGeometry>
        </mxCell>
        <mxCell id="vNeIINF5kTcQfUYiP6Qm-254" style="shape=tableRow;horizontal=0;startSize=0;swimlaneHead=0;swimlaneBody=0;fillColor=none;collapsible=0;dropTarget=0;points=[[0,0.5],[1,0.5]];portConstraint=eastwest;top=0;left=0;right=0;bottom=0;" parent="vNeIINF5kTcQfUYiP6Qm-190" vertex="1">
          <mxGeometry y="487" width="312" height="22" as="geometry" />
        </mxCell>
        <mxCell id="vNeIINF5kTcQfUYiP6Qm-255" value="boolean" style="shape=partialRectangle;connectable=0;fillColor=none;top=0;left=0;bottom=0;right=0;align=left;spacingLeft=2;overflow=hidden;fontSize=11;" parent="vNeIINF5kTcQfUYiP6Qm-254" vertex="1">
          <mxGeometry width="48" height="22" as="geometry">
            <mxRectangle width="48" height="22" as="alternateBounds" />
          </mxGeometry>
        </mxCell>
        <mxCell id="vNeIINF5kTcQfUYiP6Qm-256" value="realiza_escalonamento_producao" style="shape=partialRectangle;connectable=0;fillColor=none;top=0;left=0;bottom=0;right=0;align=left;spacingLeft=2;overflow=hidden;fontSize=11;" parent="vNeIINF5kTcQfUYiP6Qm-254" vertex="1">
          <mxGeometry x="48" width="264" height="22" as="geometry">
            <mxRectangle width="264" height="22" as="alternateBounds" />
          </mxGeometry>
        </mxCell>
        <mxCell id="vNeIINF5kTcQfUYiP6Qm-257" style="shape=tableRow;horizontal=0;startSize=0;swimlaneHead=0;swimlaneBody=0;fillColor=none;collapsible=0;dropTarget=0;points=[[0,0.5],[1,0.5]];portConstraint=eastwest;top=0;left=0;right=0;bottom=0;" parent="vNeIINF5kTcQfUYiP6Qm-190" vertex="1">
          <mxGeometry y="509" width="312" height="22" as="geometry" />
        </mxCell>
        <mxCell id="vNeIINF5kTcQfUYiP6Qm-258" value="string" style="shape=partialRectangle;connectable=0;fillColor=none;top=0;left=0;bottom=0;right=0;align=left;spacingLeft=2;overflow=hidden;fontSize=11;" parent="vNeIINF5kTcQfUYiP6Qm-257" vertex="1">
          <mxGeometry width="48" height="22" as="geometry">
            <mxRectangle width="48" height="22" as="alternateBounds" />
          </mxGeometry>
        </mxCell>
        <mxCell id="vNeIINF5kTcQfUYiP6Qm-259" value="procedimento_pos_colheita" style="shape=partialRectangle;connectable=0;fillColor=none;top=0;left=0;bottom=0;right=0;align=left;spacingLeft=2;overflow=hidden;fontSize=11;" parent="vNeIINF5kTcQfUYiP6Qm-257" vertex="1">
          <mxGeometry x="48" width="264" height="22" as="geometry">
            <mxRectangle width="264" height="22" as="alternateBounds" />
          </mxGeometry>
        </mxCell>
        <mxCell id="vNeIINF5kTcQfUYiP6Qm-260" style="shape=tableRow;horizontal=0;startSize=0;swimlaneHead=0;swimlaneBody=0;fillColor=none;collapsible=0;dropTarget=0;points=[[0,0.5],[1,0.5]];portConstraint=eastwest;top=0;left=0;right=0;bottom=0;" parent="vNeIINF5kTcQfUYiP6Qm-190" vertex="1">
          <mxGeometry y="531" width="312" height="22" as="geometry" />
        </mxCell>
        <mxCell id="vNeIINF5kTcQfUYiP6Qm-261" value="string" style="shape=partialRectangle;connectable=0;fillColor=none;top=0;left=0;bottom=0;right=0;align=left;spacingLeft=2;overflow=hidden;fontSize=11;" parent="vNeIINF5kTcQfUYiP6Qm-260" vertex="1">
          <mxGeometry width="48" height="22" as="geometry">
            <mxRectangle width="48" height="22" as="alternateBounds" />
          </mxGeometry>
        </mxCell>
        <mxCell id="vNeIINF5kTcQfUYiP6Qm-262" value="id_dados_producao_agro_industria" style="shape=partialRectangle;connectable=0;fillColor=none;top=0;left=0;bottom=0;right=0;align=left;spacingLeft=2;overflow=hidden;fontSize=11;" parent="vNeIINF5kTcQfUYiP6Qm-260" vertex="1">
          <mxGeometry x="48" width="264" height="22" as="geometry">
            <mxRectangle width="264" height="22" as="alternateBounds" />
          </mxGeometry>
        </mxCell>
        <mxCell id="vNeIINF5kTcQfUYiP6Qm-263" style="shape=tableRow;horizontal=0;startSize=0;swimlaneHead=0;swimlaneBody=0;fillColor=none;collapsible=0;dropTarget=0;points=[[0,0.5],[1,0.5]];portConstraint=eastwest;top=0;left=0;right=0;bottom=0;" parent="vNeIINF5kTcQfUYiP6Qm-190" vertex="1">
          <mxGeometry y="553" width="312" height="22" as="geometry" />
        </mxCell>
        <mxCell id="vNeIINF5kTcQfUYiP6Qm-264" value="string" style="shape=partialRectangle;connectable=0;fillColor=none;top=0;left=0;bottom=0;right=0;align=left;spacingLeft=2;overflow=hidden;fontSize=11;" parent="vNeIINF5kTcQfUYiP6Qm-263" vertex="1">
          <mxGeometry width="48" height="22" as="geometry">
            <mxRectangle width="48" height="22" as="alternateBounds" />
          </mxGeometry>
        </mxCell>
        <mxCell id="vNeIINF5kTcQfUYiP6Qm-265" value="tipo_gestao_unidade" style="shape=partialRectangle;connectable=0;fillColor=none;top=0;left=0;bottom=0;right=0;align=left;spacingLeft=2;overflow=hidden;fontSize=11;" parent="vNeIINF5kTcQfUYiP6Qm-263" vertex="1">
          <mxGeometry x="48" width="264" height="22" as="geometry">
            <mxRectangle width="264" height="22" as="alternateBounds" />
          </mxGeometry>
        </mxCell>
        <mxCell id="vNeIINF5kTcQfUYiP6Qm-266" style="shape=tableRow;horizontal=0;startSize=0;swimlaneHead=0;swimlaneBody=0;fillColor=none;collapsible=0;dropTarget=0;points=[[0,0.5],[1,0.5]];portConstraint=eastwest;top=0;left=0;right=0;bottom=0;" parent="vNeIINF5kTcQfUYiP6Qm-190" vertex="1">
          <mxGeometry y="575" width="312" height="22" as="geometry" />
        </mxCell>
        <mxCell id="vNeIINF5kTcQfUYiP6Qm-267" value="int" style="shape=partialRectangle;connectable=0;fillColor=none;top=0;left=0;bottom=0;right=0;align=left;spacingLeft=2;overflow=hidden;fontSize=11;" parent="vNeIINF5kTcQfUYiP6Qm-266" vertex="1">
          <mxGeometry width="48" height="22" as="geometry">
            <mxRectangle width="48" height="22" as="alternateBounds" />
          </mxGeometry>
        </mxCell>
        <mxCell id="vNeIINF5kTcQfUYiP6Qm-268" value="pessoas_processamento_alimentos" style="shape=partialRectangle;connectable=0;fillColor=none;top=0;left=0;bottom=0;right=0;align=left;spacingLeft=2;overflow=hidden;fontSize=11;" parent="vNeIINF5kTcQfUYiP6Qm-266" vertex="1">
          <mxGeometry x="48" width="264" height="22" as="geometry">
            <mxRectangle width="264" height="22" as="alternateBounds" />
          </mxGeometry>
        </mxCell>
        <mxCell id="vNeIINF5kTcQfUYiP6Qm-269" style="shape=tableRow;horizontal=0;startSize=0;swimlaneHead=0;swimlaneBody=0;fillColor=none;collapsible=0;dropTarget=0;points=[[0,0.5],[1,0.5]];portConstraint=eastwest;top=0;left=0;right=0;bottom=0;" parent="vNeIINF5kTcQfUYiP6Qm-190" vertex="1">
          <mxGeometry y="597" width="312" height="22" as="geometry" />
        </mxCell>
        <mxCell id="vNeIINF5kTcQfUYiP6Qm-270" value="string" style="shape=partialRectangle;connectable=0;fillColor=none;top=0;left=0;bottom=0;right=0;align=left;spacingLeft=2;overflow=hidden;fontSize=11;" parent="vNeIINF5kTcQfUYiP6Qm-269" vertex="1">
          <mxGeometry width="48" height="22" as="geometry">
            <mxRectangle width="48" height="22" as="alternateBounds" />
          </mxGeometry>
        </mxCell>
        <mxCell id="vNeIINF5kTcQfUYiP6Qm-271" value="tipo_estabelecimento" style="shape=partialRectangle;connectable=0;fillColor=none;top=0;left=0;bottom=0;right=0;align=left;spacingLeft=2;overflow=hidden;fontSize=11;" parent="vNeIINF5kTcQfUYiP6Qm-269" vertex="1">
          <mxGeometry x="48" width="264" height="22" as="geometry">
            <mxRectangle width="264" height="22" as="alternateBounds" />
          </mxGeometry>
        </mxCell>
        <mxCell id="vNeIINF5kTcQfUYiP6Qm-272" style="shape=tableRow;horizontal=0;startSize=0;swimlaneHead=0;swimlaneBody=0;fillColor=none;collapsible=0;dropTarget=0;points=[[0,0.5],[1,0.5]];portConstraint=eastwest;top=0;left=0;right=0;bottom=0;" parent="vNeIINF5kTcQfUYiP6Qm-190" vertex="1">
          <mxGeometry y="619" width="312" height="22" as="geometry" />
        </mxCell>
        <mxCell id="vNeIINF5kTcQfUYiP6Qm-273" value="string" style="shape=partialRectangle;connectable=0;fillColor=none;top=0;left=0;bottom=0;right=0;align=left;spacingLeft=2;overflow=hidden;fontSize=11;" parent="vNeIINF5kTcQfUYiP6Qm-272" vertex="1">
          <mxGeometry width="48" height="22" as="geometry">
            <mxRectangle width="48" height="22" as="alternateBounds" />
          </mxGeometry>
        </mxCell>
        <mxCell id="vNeIINF5kTcQfUYiP6Qm-274" value="tipo_pessoa_juridica" style="shape=partialRectangle;connectable=0;fillColor=none;top=0;left=0;bottom=0;right=0;align=left;spacingLeft=2;overflow=hidden;fontSize=11;" parent="vNeIINF5kTcQfUYiP6Qm-272" vertex="1">
          <mxGeometry x="48" width="264" height="22" as="geometry">
            <mxRectangle width="264" height="22" as="alternateBounds" />
          </mxGeometry>
        </mxCell>
        <mxCell id="vNeIINF5kTcQfUYiP6Qm-275" style="shape=tableRow;horizontal=0;startSize=0;swimlaneHead=0;swimlaneBody=0;fillColor=none;collapsible=0;dropTarget=0;points=[[0,0.5],[1,0.5]];portConstraint=eastwest;top=0;left=0;right=0;bottom=0;" parent="vNeIINF5kTcQfUYiP6Qm-190" vertex="1">
          <mxGeometry y="641" width="312" height="22" as="geometry" />
        </mxCell>
        <mxCell id="vNeIINF5kTcQfUYiP6Qm-276" value="boolean" style="shape=partialRectangle;connectable=0;fillColor=none;top=0;left=0;bottom=0;right=0;align=left;spacingLeft=2;overflow=hidden;fontSize=11;" parent="vNeIINF5kTcQfUYiP6Qm-275" vertex="1">
          <mxGeometry width="48" height="22" as="geometry">
            <mxRectangle width="48" height="22" as="alternateBounds" />
          </mxGeometry>
        </mxCell>
        <mxCell id="vNeIINF5kTcQfUYiP6Qm-277" value="agroindustria_precisa_adaptacao_reforma" style="shape=partialRectangle;connectable=0;fillColor=none;top=0;left=0;bottom=0;right=0;align=left;spacingLeft=2;overflow=hidden;fontSize=11;" parent="vNeIINF5kTcQfUYiP6Qm-275" vertex="1">
          <mxGeometry x="48" width="264" height="22" as="geometry">
            <mxRectangle width="264" height="22" as="alternateBounds" />
          </mxGeometry>
        </mxCell>
        <mxCell id="vNeIINF5kTcQfUYiP6Qm-278" style="shape=tableRow;horizontal=0;startSize=0;swimlaneHead=0;swimlaneBody=0;fillColor=none;collapsible=0;dropTarget=0;points=[[0,0.5],[1,0.5]];portConstraint=eastwest;top=0;left=0;right=0;bottom=0;" parent="vNeIINF5kTcQfUYiP6Qm-190" vertex="1">
          <mxGeometry y="663" width="312" height="22" as="geometry" />
        </mxCell>
        <mxCell id="vNeIINF5kTcQfUYiP6Qm-279" value="boolean" style="shape=partialRectangle;connectable=0;fillColor=none;top=0;left=0;bottom=0;right=0;align=left;spacingLeft=2;overflow=hidden;fontSize=11;" parent="vNeIINF5kTcQfUYiP6Qm-278" vertex="1">
          <mxGeometry width="48" height="22" as="geometry">
            <mxRectangle width="48" height="22" as="alternateBounds" />
          </mxGeometry>
        </mxCell>
        <mxCell id="vNeIINF5kTcQfUYiP6Qm-280" value="possui_registro_orgao_fiscalizacao_sanitaria" style="shape=partialRectangle;connectable=0;fillColor=none;top=0;left=0;bottom=0;right=0;align=left;spacingLeft=2;overflow=hidden;fontSize=11;" parent="vNeIINF5kTcQfUYiP6Qm-278" vertex="1">
          <mxGeometry x="48" width="264" height="22" as="geometry">
            <mxRectangle width="264" height="22" as="alternateBounds" />
          </mxGeometry>
        </mxCell>
        <mxCell id="vNeIINF5kTcQfUYiP6Qm-281" style="shape=tableRow;horizontal=0;startSize=0;swimlaneHead=0;swimlaneBody=0;fillColor=none;collapsible=0;dropTarget=0;points=[[0,0.5],[1,0.5]];portConstraint=eastwest;top=0;left=0;right=0;bottom=0;" parent="vNeIINF5kTcQfUYiP6Qm-190" vertex="1">
          <mxGeometry y="685" width="312" height="22" as="geometry" />
        </mxCell>
        <mxCell id="vNeIINF5kTcQfUYiP6Qm-282" value="string" style="shape=partialRectangle;connectable=0;fillColor=none;top=0;left=0;bottom=0;right=0;align=left;spacingLeft=2;overflow=hidden;fontSize=11;" parent="vNeIINF5kTcQfUYiP6Qm-281" vertex="1">
          <mxGeometry width="48" height="22" as="geometry">
            <mxRectangle width="48" height="22" as="alternateBounds" />
          </mxGeometry>
        </mxCell>
        <mxCell id="vNeIINF5kTcQfUYiP6Qm-283" value="orgao_fiscalizacao_sanitaria" style="shape=partialRectangle;connectable=0;fillColor=none;top=0;left=0;bottom=0;right=0;align=left;spacingLeft=2;overflow=hidden;fontSize=11;" parent="vNeIINF5kTcQfUYiP6Qm-281" vertex="1">
          <mxGeometry x="48" width="264" height="22" as="geometry">
            <mxRectangle width="264" height="22" as="alternateBounds" />
          </mxGeometry>
        </mxCell>
        <mxCell id="vNeIINF5kTcQfUYiP6Qm-284" style="shape=tableRow;horizontal=0;startSize=0;swimlaneHead=0;swimlaneBody=0;fillColor=none;collapsible=0;dropTarget=0;points=[[0,0.5],[1,0.5]];portConstraint=eastwest;top=0;left=0;right=0;bottom=0;" parent="vNeIINF5kTcQfUYiP6Qm-190" vertex="1">
          <mxGeometry y="707" width="312" height="22" as="geometry" />
        </mxCell>
        <mxCell id="vNeIINF5kTcQfUYiP6Qm-285" value="boolean" style="shape=partialRectangle;connectable=0;fillColor=none;top=0;left=0;bottom=0;right=0;align=left;spacingLeft=2;overflow=hidden;fontSize=11;" parent="vNeIINF5kTcQfUYiP6Qm-284" vertex="1">
          <mxGeometry width="48" height="22" as="geometry">
            <mxRectangle width="48" height="22" as="alternateBounds" />
          </mxGeometry>
        </mxCell>
        <mxCell id="vNeIINF5kTcQfUYiP6Qm-286" value="possui_agroindustria_propria" style="shape=partialRectangle;connectable=0;fillColor=none;top=0;left=0;bottom=0;right=0;align=left;spacingLeft=2;overflow=hidden;fontSize=11;" parent="vNeIINF5kTcQfUYiP6Qm-284" vertex="1">
          <mxGeometry x="48" width="264" height="22" as="geometry">
            <mxRectangle width="264" height="22" as="alternateBounds" />
          </mxGeometry>
        </mxCell>
        <mxCell id="vNeIINF5kTcQfUYiP6Qm-287" value="Atividade" style="shape=table;startSize=25;container=1;collapsible=0;childLayout=tableLayout;fixedRows=1;rowLines=1;fontStyle=1;align=center;resizeLast=1;fillColor=#dae8fc;strokeColor=#6c8ebf;fontColor=#000000;" parent="1" vertex="1">
          <mxGeometry x="370" y="840" width="174" height="135" as="geometry" />
        </mxCell>
        <mxCell id="vNeIINF5kTcQfUYiP6Qm-288" style="shape=tableRow;horizontal=0;startSize=0;swimlaneHead=0;swimlaneBody=0;fillColor=none;collapsible=0;dropTarget=0;points=[[0,0.5],[1,0.5]];portConstraint=eastwest;top=0;left=0;right=0;bottom=0;" parent="vNeIINF5kTcQfUYiP6Qm-287" vertex="1">
          <mxGeometry y="25" width="174" height="22" as="geometry" />
        </mxCell>
        <mxCell id="vNeIINF5kTcQfUYiP6Qm-289" value="string" style="shape=partialRectangle;connectable=0;fillColor=none;top=0;left=0;bottom=0;right=0;align=left;spacingLeft=2;overflow=hidden;fontSize=11;" parent="vNeIINF5kTcQfUYiP6Qm-288" vertex="1">
          <mxGeometry width="42" height="22" as="geometry">
            <mxRectangle width="42" height="22" as="alternateBounds" />
          </mxGeometry>
        </mxCell>
        <mxCell id="vNeIINF5kTcQfUYiP6Qm-290" value="id" style="shape=partialRectangle;connectable=0;fillColor=none;top=0;left=0;bottom=0;right=0;align=left;spacingLeft=2;overflow=hidden;fontSize=11;" parent="vNeIINF5kTcQfUYiP6Qm-288" vertex="1">
          <mxGeometry x="42" width="132" height="22" as="geometry">
            <mxRectangle width="132" height="22" as="alternateBounds" />
          </mxGeometry>
        </mxCell>
        <mxCell id="vNeIINF5kTcQfUYiP6Qm-291" style="shape=tableRow;horizontal=0;startSize=0;swimlaneHead=0;swimlaneBody=0;fillColor=none;collapsible=0;dropTarget=0;points=[[0,0.5],[1,0.5]];portConstraint=eastwest;top=0;left=0;right=0;bottom=0;" parent="vNeIINF5kTcQfUYiP6Qm-287" vertex="1">
          <mxGeometry y="47" width="174" height="22" as="geometry" />
        </mxCell>
        <mxCell id="vNeIINF5kTcQfUYiP6Qm-292" value="string" style="shape=partialRectangle;connectable=0;fillColor=none;top=0;left=0;bottom=0;right=0;align=left;spacingLeft=2;overflow=hidden;fontSize=11;" parent="vNeIINF5kTcQfUYiP6Qm-291" vertex="1">
          <mxGeometry width="42" height="22" as="geometry">
            <mxRectangle width="42" height="22" as="alternateBounds" />
          </mxGeometry>
        </mxCell>
        <mxCell id="vNeIINF5kTcQfUYiP6Qm-293" value="id_perfil_see" style="shape=partialRectangle;connectable=0;fillColor=none;top=0;left=0;bottom=0;right=0;align=left;spacingLeft=2;overflow=hidden;fontSize=11;" parent="vNeIINF5kTcQfUYiP6Qm-291" vertex="1">
          <mxGeometry x="42" width="132" height="22" as="geometry">
            <mxRectangle width="132" height="22" as="alternateBounds" />
          </mxGeometry>
        </mxCell>
        <mxCell id="vNeIINF5kTcQfUYiP6Qm-294" style="shape=tableRow;horizontal=0;startSize=0;swimlaneHead=0;swimlaneBody=0;fillColor=none;collapsible=0;dropTarget=0;points=[[0,0.5],[1,0.5]];portConstraint=eastwest;top=0;left=0;right=0;bottom=0;" parent="vNeIINF5kTcQfUYiP6Qm-287" vertex="1">
          <mxGeometry y="69" width="174" height="22" as="geometry" />
        </mxCell>
        <mxCell id="vNeIINF5kTcQfUYiP6Qm-295" value="bigint" style="shape=partialRectangle;connectable=0;fillColor=none;top=0;left=0;bottom=0;right=0;align=left;spacingLeft=2;overflow=hidden;fontSize=11;" parent="vNeIINF5kTcQfUYiP6Qm-294" vertex="1">
          <mxGeometry width="42" height="22" as="geometry">
            <mxRectangle width="42" height="22" as="alternateBounds" />
          </mxGeometry>
        </mxCell>
        <mxCell id="vNeIINF5kTcQfUYiP6Qm-296" value="id_propriedade" style="shape=partialRectangle;connectable=0;fillColor=none;top=0;left=0;bottom=0;right=0;align=left;spacingLeft=2;overflow=hidden;fontSize=11;" parent="vNeIINF5kTcQfUYiP6Qm-294" vertex="1">
          <mxGeometry x="42" width="132" height="22" as="geometry">
            <mxRectangle width="132" height="22" as="alternateBounds" />
          </mxGeometry>
        </mxCell>
        <mxCell id="vNeIINF5kTcQfUYiP6Qm-297" style="shape=tableRow;horizontal=0;startSize=0;swimlaneHead=0;swimlaneBody=0;fillColor=none;collapsible=0;dropTarget=0;points=[[0,0.5],[1,0.5]];portConstraint=eastwest;top=0;left=0;right=0;bottom=0;" parent="vNeIINF5kTcQfUYiP6Qm-287" vertex="1">
          <mxGeometry y="91" width="174" height="22" as="geometry" />
        </mxCell>
        <mxCell id="vNeIINF5kTcQfUYiP6Qm-298" value="string" style="shape=partialRectangle;connectable=0;fillColor=none;top=0;left=0;bottom=0;right=0;align=left;spacingLeft=2;overflow=hidden;fontSize=11;" parent="vNeIINF5kTcQfUYiP6Qm-297" vertex="1">
          <mxGeometry width="42" height="22" as="geometry">
            <mxRectangle width="42" height="22" as="alternateBounds" />
          </mxGeometry>
        </mxCell>
        <mxCell id="vNeIINF5kTcQfUYiP6Qm-299" value="atividade" style="shape=partialRectangle;connectable=0;fillColor=none;top=0;left=0;bottom=0;right=0;align=left;spacingLeft=2;overflow=hidden;fontSize=11;" parent="vNeIINF5kTcQfUYiP6Qm-297" vertex="1">
          <mxGeometry x="42" width="132" height="22" as="geometry">
            <mxRectangle width="132" height="22" as="alternateBounds" />
          </mxGeometry>
        </mxCell>
        <mxCell id="vNeIINF5kTcQfUYiP6Qm-300" style="shape=tableRow;horizontal=0;startSize=0;swimlaneHead=0;swimlaneBody=0;fillColor=none;collapsible=0;dropTarget=0;points=[[0,0.5],[1,0.5]];portConstraint=eastwest;top=0;left=0;right=0;bottom=0;" parent="vNeIINF5kTcQfUYiP6Qm-287" vertex="1">
          <mxGeometry y="113" width="174" height="22" as="geometry" />
        </mxCell>
        <mxCell id="vNeIINF5kTcQfUYiP6Qm-301" value="boolean" style="shape=partialRectangle;connectable=0;fillColor=none;top=0;left=0;bottom=0;right=0;align=left;spacingLeft=2;overflow=hidden;fontSize=11;" parent="vNeIINF5kTcQfUYiP6Qm-300" vertex="1">
          <mxGeometry width="42" height="22" as="geometry">
            <mxRectangle width="42" height="22" as="alternateBounds" />
          </mxGeometry>
        </mxCell>
        <mxCell id="vNeIINF5kTcQfUYiP6Qm-302" value="producao_dedicada_pnae" style="shape=partialRectangle;connectable=0;fillColor=none;top=0;left=0;bottom=0;right=0;align=left;spacingLeft=2;overflow=hidden;fontSize=11;" parent="vNeIINF5kTcQfUYiP6Qm-300" vertex="1">
          <mxGeometry x="42" width="132" height="22" as="geometry">
            <mxRectangle width="132" height="22" as="alternateBounds" />
          </mxGeometry>
        </mxCell>
        <mxCell id="vNeIINF5kTcQfUYiP6Qm-303" value="DadosProducao" style="shape=table;startSize=25;container=1;collapsible=0;childLayout=tableLayout;fixedRows=1;rowLines=1;fontStyle=1;align=center;resizeLast=1;fillColor=#dae8fc;strokeColor=#6c8ebf;fontColor=#000000;" parent="1" vertex="1">
          <mxGeometry x="620" y="840" width="282" height="245" as="geometry" />
        </mxCell>
        <mxCell id="vNeIINF5kTcQfUYiP6Qm-304" style="shape=tableRow;horizontal=0;startSize=0;swimlaneHead=0;swimlaneBody=0;fillColor=none;collapsible=0;dropTarget=0;points=[[0,0.5],[1,0.5]];portConstraint=eastwest;top=0;left=0;right=0;bottom=0;" parent="vNeIINF5kTcQfUYiP6Qm-303" vertex="1">
          <mxGeometry y="25" width="282" height="22" as="geometry" />
        </mxCell>
        <mxCell id="vNeIINF5kTcQfUYiP6Qm-305" value="string" style="shape=partialRectangle;connectable=0;fillColor=none;top=0;left=0;bottom=0;right=0;align=left;spacingLeft=2;overflow=hidden;fontSize=11;" parent="vNeIINF5kTcQfUYiP6Qm-304" vertex="1">
          <mxGeometry width="42" height="22" as="geometry">
            <mxRectangle width="42" height="22" as="alternateBounds" />
          </mxGeometry>
        </mxCell>
        <mxCell id="vNeIINF5kTcQfUYiP6Qm-306" value="id" style="shape=partialRectangle;connectable=0;fillColor=none;top=0;left=0;bottom=0;right=0;align=left;spacingLeft=2;overflow=hidden;fontSize=11;" parent="vNeIINF5kTcQfUYiP6Qm-304" vertex="1">
          <mxGeometry x="42" width="240" height="22" as="geometry">
            <mxRectangle width="240" height="22" as="alternateBounds" />
          </mxGeometry>
        </mxCell>
        <mxCell id="vNeIINF5kTcQfUYiP6Qm-307" style="shape=tableRow;horizontal=0;startSize=0;swimlaneHead=0;swimlaneBody=0;fillColor=none;collapsible=0;dropTarget=0;points=[[0,0.5],[1,0.5]];portConstraint=eastwest;top=0;left=0;right=0;bottom=0;" parent="vNeIINF5kTcQfUYiP6Qm-303" vertex="1">
          <mxGeometry y="47" width="282" height="22" as="geometry" />
        </mxCell>
        <mxCell id="vNeIINF5kTcQfUYiP6Qm-308" value="string" style="shape=partialRectangle;connectable=0;fillColor=none;top=0;left=0;bottom=0;right=0;align=left;spacingLeft=2;overflow=hidden;fontSize=11;" parent="vNeIINF5kTcQfUYiP6Qm-307" vertex="1">
          <mxGeometry width="42" height="22" as="geometry">
            <mxRectangle width="42" height="22" as="alternateBounds" />
          </mxGeometry>
        </mxCell>
        <mxCell id="vNeIINF5kTcQfUYiP6Qm-309" value="tipo_regularizacao_uso_recursos_hidricos" style="shape=partialRectangle;connectable=0;fillColor=none;top=0;left=0;bottom=0;right=0;align=left;spacingLeft=2;overflow=hidden;fontSize=11;" parent="vNeIINF5kTcQfUYiP6Qm-307" vertex="1">
          <mxGeometry x="42" width="240" height="22" as="geometry">
            <mxRectangle width="240" height="22" as="alternateBounds" />
          </mxGeometry>
        </mxCell>
        <mxCell id="vNeIINF5kTcQfUYiP6Qm-310" style="shape=tableRow;horizontal=0;startSize=0;swimlaneHead=0;swimlaneBody=0;fillColor=none;collapsible=0;dropTarget=0;points=[[0,0.5],[1,0.5]];portConstraint=eastwest;top=0;left=0;right=0;bottom=0;" parent="vNeIINF5kTcQfUYiP6Qm-303" vertex="1">
          <mxGeometry y="69" width="282" height="22" as="geometry" />
        </mxCell>
        <mxCell id="vNeIINF5kTcQfUYiP6Qm-311" value="string" style="shape=partialRectangle;connectable=0;fillColor=none;top=0;left=0;bottom=0;right=0;align=left;spacingLeft=2;overflow=hidden;fontSize=11;" parent="vNeIINF5kTcQfUYiP6Qm-310" vertex="1">
          <mxGeometry width="42" height="22" as="geometry">
            <mxRectangle width="42" height="22" as="alternateBounds" />
          </mxGeometry>
        </mxCell>
        <mxCell id="vNeIINF5kTcQfUYiP6Qm-312" value="tipo_regularizacao_ambiental" style="shape=partialRectangle;connectable=0;fillColor=none;top=0;left=0;bottom=0;right=0;align=left;spacingLeft=2;overflow=hidden;fontSize=11;" parent="vNeIINF5kTcQfUYiP6Qm-310" vertex="1">
          <mxGeometry x="42" width="240" height="22" as="geometry">
            <mxRectangle width="240" height="22" as="alternateBounds" />
          </mxGeometry>
        </mxCell>
        <mxCell id="vNeIINF5kTcQfUYiP6Qm-313" style="shape=tableRow;horizontal=0;startSize=0;swimlaneHead=0;swimlaneBody=0;fillColor=none;collapsible=0;dropTarget=0;points=[[0,0.5],[1,0.5]];portConstraint=eastwest;top=0;left=0;right=0;bottom=0;" parent="vNeIINF5kTcQfUYiP6Qm-303" vertex="1">
          <mxGeometry y="91" width="282" height="22" as="geometry" />
        </mxCell>
        <mxCell id="vNeIINF5kTcQfUYiP6Qm-314" value="boolean" style="shape=partialRectangle;connectable=0;fillColor=none;top=0;left=0;bottom=0;right=0;align=left;spacingLeft=2;overflow=hidden;fontSize=11;" parent="vNeIINF5kTcQfUYiP6Qm-313" vertex="1">
          <mxGeometry width="42" height="22" as="geometry">
            <mxRectangle width="42" height="22" as="alternateBounds" />
          </mxGeometry>
        </mxCell>
        <mxCell id="vNeIINF5kTcQfUYiP6Qm-315" value="controla_custos_producao" style="shape=partialRectangle;connectable=0;fillColor=none;top=0;left=0;bottom=0;right=0;align=left;spacingLeft=2;overflow=hidden;fontSize=11;" parent="vNeIINF5kTcQfUYiP6Qm-313" vertex="1">
          <mxGeometry x="42" width="240" height="22" as="geometry">
            <mxRectangle width="240" height="22" as="alternateBounds" />
          </mxGeometry>
        </mxCell>
        <mxCell id="vNeIINF5kTcQfUYiP6Qm-316" style="shape=tableRow;horizontal=0;startSize=0;swimlaneHead=0;swimlaneBody=0;fillColor=none;collapsible=0;dropTarget=0;points=[[0,0.5],[1,0.5]];portConstraint=eastwest;top=0;left=0;right=0;bottom=0;" parent="vNeIINF5kTcQfUYiP6Qm-303" vertex="1">
          <mxGeometry y="113" width="282" height="22" as="geometry" />
        </mxCell>
        <mxCell id="vNeIINF5kTcQfUYiP6Qm-317" value="string" style="shape=partialRectangle;connectable=0;fillColor=none;top=0;left=0;bottom=0;right=0;align=left;spacingLeft=2;overflow=hidden;fontSize=11;" parent="vNeIINF5kTcQfUYiP6Qm-316" vertex="1">
          <mxGeometry width="42" height="22" as="geometry">
            <mxRectangle width="42" height="22" as="alternateBounds" />
          </mxGeometry>
        </mxCell>
        <mxCell id="vNeIINF5kTcQfUYiP6Qm-318" value="local_comercializacao" style="shape=partialRectangle;connectable=0;fillColor=none;top=0;left=0;bottom=0;right=0;align=left;spacingLeft=2;overflow=hidden;fontSize=11;" parent="vNeIINF5kTcQfUYiP6Qm-316" vertex="1">
          <mxGeometry x="42" width="240" height="22" as="geometry">
            <mxRectangle width="240" height="22" as="alternateBounds" />
          </mxGeometry>
        </mxCell>
        <mxCell id="vNeIINF5kTcQfUYiP6Qm-319" style="shape=tableRow;horizontal=0;startSize=0;swimlaneHead=0;swimlaneBody=0;fillColor=none;collapsible=0;dropTarget=0;points=[[0,0.5],[1,0.5]];portConstraint=eastwest;top=0;left=0;right=0;bottom=0;" parent="vNeIINF5kTcQfUYiP6Qm-303" vertex="1">
          <mxGeometry y="135" width="282" height="22" as="geometry" />
        </mxCell>
        <mxCell id="vNeIINF5kTcQfUYiP6Qm-320" value="string" style="shape=partialRectangle;connectable=0;fillColor=none;top=0;left=0;bottom=0;right=0;align=left;spacingLeft=2;overflow=hidden;fontSize=11;" parent="vNeIINF5kTcQfUYiP6Qm-319" vertex="1">
          <mxGeometry width="42" height="22" as="geometry">
            <mxRectangle width="42" height="22" as="alternateBounds" />
          </mxGeometry>
        </mxCell>
        <mxCell id="vNeIINF5kTcQfUYiP6Qm-321" value="valor_total_obtido_pnae" style="shape=partialRectangle;connectable=0;fillColor=none;top=0;left=0;bottom=0;right=0;align=left;spacingLeft=2;overflow=hidden;fontSize=11;" parent="vNeIINF5kTcQfUYiP6Qm-319" vertex="1">
          <mxGeometry x="42" width="240" height="22" as="geometry">
            <mxRectangle width="240" height="22" as="alternateBounds" />
          </mxGeometry>
        </mxCell>
        <mxCell id="vNeIINF5kTcQfUYiP6Qm-322" style="shape=tableRow;horizontal=0;startSize=0;swimlaneHead=0;swimlaneBody=0;fillColor=none;collapsible=0;dropTarget=0;points=[[0,0.5],[1,0.5]];portConstraint=eastwest;top=0;left=0;right=0;bottom=0;" parent="vNeIINF5kTcQfUYiP6Qm-303" vertex="1">
          <mxGeometry y="157" width="282" height="22" as="geometry" />
        </mxCell>
        <mxCell id="vNeIINF5kTcQfUYiP6Qm-323" value="string" style="shape=partialRectangle;connectable=0;fillColor=none;top=0;left=0;bottom=0;right=0;align=left;spacingLeft=2;overflow=hidden;fontSize=11;" parent="vNeIINF5kTcQfUYiP6Qm-322" vertex="1">
          <mxGeometry width="42" height="22" as="geometry">
            <mxRectangle width="42" height="22" as="alternateBounds" />
          </mxGeometry>
        </mxCell>
        <mxCell id="vNeIINF5kTcQfUYiP6Qm-324" value="valor_total_obtido_outros" style="shape=partialRectangle;connectable=0;fillColor=none;top=0;left=0;bottom=0;right=0;align=left;spacingLeft=2;overflow=hidden;fontSize=11;" parent="vNeIINF5kTcQfUYiP6Qm-322" vertex="1">
          <mxGeometry x="42" width="240" height="22" as="geometry">
            <mxRectangle width="240" height="22" as="alternateBounds" />
          </mxGeometry>
        </mxCell>
        <mxCell id="vNeIINF5kTcQfUYiP6Qm-325" style="shape=tableRow;horizontal=0;startSize=0;swimlaneHead=0;swimlaneBody=0;fillColor=none;collapsible=0;dropTarget=0;points=[[0,0.5],[1,0.5]];portConstraint=eastwest;top=0;left=0;right=0;bottom=0;" parent="vNeIINF5kTcQfUYiP6Qm-303" vertex="1">
          <mxGeometry y="179" width="282" height="22" as="geometry" />
        </mxCell>
        <mxCell id="vNeIINF5kTcQfUYiP6Qm-326" value="string" style="shape=partialRectangle;connectable=0;fillColor=none;top=0;left=0;bottom=0;right=0;align=left;spacingLeft=2;overflow=hidden;fontSize=11;" parent="vNeIINF5kTcQfUYiP6Qm-325" vertex="1">
          <mxGeometry width="42" height="22" as="geometry">
            <mxRectangle width="42" height="22" as="alternateBounds" />
          </mxGeometry>
        </mxCell>
        <mxCell id="vNeIINF5kTcQfUYiP6Qm-327" value="forma_entrega_produtos" style="shape=partialRectangle;connectable=0;fillColor=none;top=0;left=0;bottom=0;right=0;align=left;spacingLeft=2;overflow=hidden;fontSize=11;" parent="vNeIINF5kTcQfUYiP6Qm-325" vertex="1">
          <mxGeometry x="42" width="240" height="22" as="geometry">
            <mxRectangle width="240" height="22" as="alternateBounds" />
          </mxGeometry>
        </mxCell>
        <mxCell id="vNeIINF5kTcQfUYiP6Qm-328" style="shape=tableRow;horizontal=0;startSize=0;swimlaneHead=0;swimlaneBody=0;fillColor=none;collapsible=0;dropTarget=0;points=[[0,0.5],[1,0.5]];portConstraint=eastwest;top=0;left=0;right=0;bottom=0;" parent="vNeIINF5kTcQfUYiP6Qm-303" vertex="1">
          <mxGeometry y="201" width="282" height="22" as="geometry" />
        </mxCell>
        <mxCell id="vNeIINF5kTcQfUYiP6Qm-329" value="string" style="shape=partialRectangle;connectable=0;fillColor=none;top=0;left=0;bottom=0;right=0;align=left;spacingLeft=2;overflow=hidden;fontSize=11;" parent="vNeIINF5kTcQfUYiP6Qm-328" vertex="1">
          <mxGeometry width="42" height="22" as="geometry">
            <mxRectangle width="42" height="22" as="alternateBounds" />
          </mxGeometry>
        </mxCell>
        <mxCell id="vNeIINF5kTcQfUYiP6Qm-330" value="dificuldade_fornecimento" style="shape=partialRectangle;connectable=0;fillColor=none;top=0;left=0;bottom=0;right=0;align=left;spacingLeft=2;overflow=hidden;fontSize=11;" parent="vNeIINF5kTcQfUYiP6Qm-328" vertex="1">
          <mxGeometry x="42" width="240" height="22" as="geometry">
            <mxRectangle width="240" height="22" as="alternateBounds" />
          </mxGeometry>
        </mxCell>
        <mxCell id="vNeIINF5kTcQfUYiP6Qm-331" style="shape=tableRow;horizontal=0;startSize=0;swimlaneHead=0;swimlaneBody=0;fillColor=none;collapsible=0;dropTarget=0;points=[[0,0.5],[1,0.5]];portConstraint=eastwest;top=0;left=0;right=0;bottom=0;" parent="vNeIINF5kTcQfUYiP6Qm-303" vertex="1">
          <mxGeometry y="223" width="282" height="22" as="geometry" />
        </mxCell>
        <mxCell id="vNeIINF5kTcQfUYiP6Qm-332" value="string" style="shape=partialRectangle;connectable=0;fillColor=none;top=0;left=0;bottom=0;right=0;align=left;spacingLeft=2;overflow=hidden;fontSize=11;" parent="vNeIINF5kTcQfUYiP6Qm-331" vertex="1">
          <mxGeometry width="42" height="22" as="geometry">
            <mxRectangle width="42" height="22" as="alternateBounds" />
          </mxGeometry>
        </mxCell>
        <mxCell id="vNeIINF5kTcQfUYiP6Qm-333" value="informacoes_adicionais" style="shape=partialRectangle;connectable=0;fillColor=none;top=0;left=0;bottom=0;right=0;align=left;spacingLeft=2;overflow=hidden;fontSize=11;" parent="vNeIINF5kTcQfUYiP6Qm-331" vertex="1">
          <mxGeometry x="42" width="240" height="22" as="geometry">
            <mxRectangle width="240" height="22" as="alternateBounds" />
          </mxGeometry>
        </mxCell>
        <mxCell id="vNeIINF5kTcQfUYiP6Qm-334" value="" style="curved=1;startArrow=ERmandOne;startSize=10;;endArrow=ERoneToMany;endSize=10;;exitX=0.47253299581593483;exitY=1;entryX=0.4119133282406537;entryY=0;rounded=0;" parent="1" source="vNeIINF5kTcQfUYiP6Qm-1" target="vNeIINF5kTcQfUYiP6Qm-89" edge="1">
          <mxGeometry relative="1" as="geometry">
            <Array as="points">
              <mxPoint x="122" y="808" />
            </Array>
          </mxGeometry>
        </mxCell>
        <mxCell id="vNeIINF5kTcQfUYiP6Qm-335" value="" style="startArrow=ERmandOne;startSize=10;;endArrow=ERoneToMany;endSize=10;;exitX=0.002;exitY=0.973;entryX=1;entryY=0;rounded=0;exitDx=0;exitDy=0;exitPerimeter=0;entryDx=0;entryDy=0;" parent="1" source="vNeIINF5kTcQfUYiP6Qm-187" target="vNeIINF5kTcQfUYiP6Qm-89" edge="1">
          <mxGeometry x="-0.2741" y="-34" relative="1" as="geometry">
            <mxPoint as="offset" />
          </mxGeometry>
        </mxCell>
        <mxCell id="vNeIINF5kTcQfUYiP6Qm-336" value="" style="curved=1;startArrow=ERmandOne;startSize=10;;endArrow=ERoneToMany;endSize=10;;exitX=0.001520401392227564;exitY=0.9863466603831108;entryX=0.7345908566994708;entryY=0;rounded=0;" parent="1" source="vNeIINF5kTcQfUYiP6Qm-190" target="vNeIINF5kTcQfUYiP6Qm-287" edge="1">
          <mxGeometry relative="1" as="geometry">
            <Array as="points">
              <mxPoint x="607" y="808" />
            </Array>
          </mxGeometry>
        </mxCell>
        <mxCell id="vNeIINF5kTcQfUYiP6Qm-337" value="" style="startArrow=ERmandOne;startSize=10;;endArrow=ERoneToMany;endSize=10;;entryX=0.3872488695362359;entryY=0;rounded=0;exitX=0.601;exitY=1.007;exitDx=0;exitDy=0;exitPerimeter=0;" parent="1" source="vNeIINF5kTcQfUYiP6Qm-187" target="vNeIINF5kTcQfUYiP6Qm-287" edge="1">
          <mxGeometry relative="1" as="geometry">
            <mxPoint x="440" y="808" as="sourcePoint" />
          </mxGeometry>
        </mxCell>
        <mxCell id="vNeIINF5kTcQfUYiP6Qm-338" value="" style="startArrow=ERmandOne;startSize=10;;endArrow=ERmany;endSize=10;;exitX=0.417;exitY=0.992;entryX=0.5;entryY=0;rounded=0;exitDx=0;exitDy=0;exitPerimeter=0;entryDx=0;entryDy=0;" parent="1" source="vNeIINF5kTcQfUYiP6Qm-284" target="vNeIINF5kTcQfUYiP6Qm-303" edge="1">
          <mxGeometry x="0.2562" y="-17" relative="1" as="geometry">
            <mxPoint as="offset" />
          </mxGeometry>
        </mxCell>
        <mxCell id="WxzbUBmk6RLWLVs4A5Ft-1" value="Tecnico" style="shape=table;startSize=25;container=1;collapsible=0;childLayout=tableLayout;fixedRows=1;rowLines=1;fontStyle=1;align=center;resizeLast=1;fillColor=#dae8fc;strokeColor=#6c8ebf;fontColor=#000000;" parent="1" vertex="1">
          <mxGeometry x="960" y="884" width="174" height="113" as="geometry" />
        </mxCell>
        <mxCell id="WxzbUBmk6RLWLVs4A5Ft-2" style="shape=tableRow;horizontal=0;startSize=0;swimlaneHead=0;swimlaneBody=0;fillColor=none;collapsible=0;dropTarget=0;points=[[0,0.5],[1,0.5]];portConstraint=eastwest;top=0;left=0;right=0;bottom=0;" parent="WxzbUBmk6RLWLVs4A5Ft-1" vertex="1">
          <mxGeometry y="25" width="174" height="22" as="geometry" />
        </mxCell>
        <mxCell id="WxzbUBmk6RLWLVs4A5Ft-3" value="int" style="shape=partialRectangle;connectable=0;fillColor=none;top=0;left=0;bottom=0;right=0;align=left;spacingLeft=2;overflow=hidden;fontSize=11;" parent="WxzbUBmk6RLWLVs4A5Ft-2" vertex="1">
          <mxGeometry width="42" height="22" as="geometry">
            <mxRectangle width="42" height="22" as="alternateBounds" />
          </mxGeometry>
        </mxCell>
        <mxCell id="WxzbUBmk6RLWLVs4A5Ft-4" value="id_tecnico" style="shape=partialRectangle;connectable=0;fillColor=none;top=0;left=0;bottom=0;right=0;align=left;spacingLeft=2;overflow=hidden;fontSize=11;" parent="WxzbUBmk6RLWLVs4A5Ft-2" vertex="1">
          <mxGeometry x="42" width="132" height="22" as="geometry">
            <mxRectangle width="132" height="22" as="alternateBounds" />
          </mxGeometry>
        </mxCell>
        <mxCell id="WxzbUBmk6RLWLVs4A5Ft-5" style="shape=tableRow;horizontal=0;startSize=0;swimlaneHead=0;swimlaneBody=0;fillColor=none;collapsible=0;dropTarget=0;points=[[0,0.5],[1,0.5]];portConstraint=eastwest;top=0;left=0;right=0;bottom=0;" parent="WxzbUBmk6RLWLVs4A5Ft-1" vertex="1">
          <mxGeometry y="47" width="174" height="22" as="geometry" />
        </mxCell>
        <mxCell id="WxzbUBmk6RLWLVs4A5Ft-6" value="string" style="shape=partialRectangle;connectable=0;fillColor=none;top=0;left=0;bottom=0;right=0;align=left;spacingLeft=2;overflow=hidden;fontSize=11;" parent="WxzbUBmk6RLWLVs4A5Ft-5" vertex="1">
          <mxGeometry width="42" height="22" as="geometry">
            <mxRectangle width="42" height="22" as="alternateBounds" />
          </mxGeometry>
        </mxCell>
        <mxCell id="WxzbUBmk6RLWLVs4A5Ft-7" value="nome_tecniico" style="shape=partialRectangle;connectable=0;fillColor=none;top=0;left=0;bottom=0;right=0;align=left;spacingLeft=2;overflow=hidden;fontSize=11;" parent="WxzbUBmk6RLWLVs4A5Ft-5" vertex="1">
          <mxGeometry x="42" width="132" height="22" as="geometry">
            <mxRectangle width="132" height="22" as="alternateBounds" />
          </mxGeometry>
        </mxCell>
        <mxCell id="WxzbUBmk6RLWLVs4A5Ft-8" style="shape=tableRow;horizontal=0;startSize=0;swimlaneHead=0;swimlaneBody=0;fillColor=none;collapsible=0;dropTarget=0;points=[[0,0.5],[1,0.5]];portConstraint=eastwest;top=0;left=0;right=0;bottom=0;" parent="WxzbUBmk6RLWLVs4A5Ft-1" vertex="1">
          <mxGeometry y="69" width="174" height="22" as="geometry" />
        </mxCell>
        <mxCell id="WxzbUBmk6RLWLVs4A5Ft-9" value="string" style="shape=partialRectangle;connectable=0;fillColor=none;top=0;left=0;bottom=0;right=0;align=left;spacingLeft=2;overflow=hidden;fontSize=11;" parent="WxzbUBmk6RLWLVs4A5Ft-8" vertex="1">
          <mxGeometry width="42" height="22" as="geometry">
            <mxRectangle width="42" height="22" as="alternateBounds" />
          </mxGeometry>
        </mxCell>
        <mxCell id="WxzbUBmk6RLWLVs4A5Ft-10" value="matricula_tecnico" style="shape=partialRectangle;connectable=0;fillColor=none;top=0;left=0;bottom=0;right=0;align=left;spacingLeft=2;overflow=hidden;fontSize=11;" parent="WxzbUBmk6RLWLVs4A5Ft-8" vertex="1">
          <mxGeometry x="42" width="132" height="22" as="geometry">
            <mxRectangle width="132" height="22" as="alternateBounds" />
          </mxGeometry>
        </mxCell>
        <mxCell id="WxzbUBmk6RLWLVs4A5Ft-22" style="shape=tableRow;horizontal=0;startSize=0;swimlaneHead=0;swimlaneBody=0;fillColor=none;collapsible=0;dropTarget=0;points=[[0,0.5],[1,0.5]];portConstraint=eastwest;top=0;left=0;right=0;bottom=0;" parent="WxzbUBmk6RLWLVs4A5Ft-1" vertex="1">
          <mxGeometry y="91" width="174" height="22" as="geometry" />
        </mxCell>
        <mxCell id="WxzbUBmk6RLWLVs4A5Ft-23" value="string" style="shape=partialRectangle;connectable=0;fillColor=none;top=0;left=0;bottom=0;right=0;align=left;spacingLeft=2;overflow=hidden;fontSize=11;" parent="WxzbUBmk6RLWLVs4A5Ft-22" vertex="1">
          <mxGeometry width="42" height="22" as="geometry">
            <mxRectangle width="42" height="22" as="alternateBounds" />
          </mxGeometry>
        </mxCell>
        <mxCell id="WxzbUBmk6RLWLVs4A5Ft-24" value="cfta_tecnico" style="shape=partialRectangle;connectable=0;fillColor=none;top=0;left=0;bottom=0;right=0;align=left;spacingLeft=2;overflow=hidden;fontSize=11;" parent="WxzbUBmk6RLWLVs4A5Ft-22" vertex="1">
          <mxGeometry x="42" width="132" height="22" as="geometry">
            <mxRectangle width="132" height="22" as="alternateBounds" />
          </mxGeometry>
        </mxCell>
        <mxCell id="WxzbUBmk6RLWLVs4A5Ft-20" value="" style="edgeStyle=orthogonalEdgeStyle;fontSize=12;html=1;endArrow=ERoneToMany;startArrow=ERzeroToMany;rounded=0;entryX=0.534;entryY=0.009;entryDx=0;entryDy=0;entryPerimeter=0;exitX=1;exitY=0.5;exitDx=0;exitDy=0;elbow=vertical;curved=1;" parent="1" source="vNeIINF5kTcQfUYiP6Qm-278" target="WxzbUBmk6RLWLVs4A5Ft-1" edge="1">
          <mxGeometry width="100" height="100" relative="1" as="geometry">
            <mxPoint x="950" y="704" as="sourcePoint" />
            <mxPoint x="1000" y="730" as="targetPoint" />
          </mxGeometry>
        </mxCell>
      </root>
    </mxGraphModel>
  </diagram>
</mxfile>
